<?xml version="1.0" encoding="UTF-8"?>
<svg xmlns="http://www.w3.org/2000/svg" xmlns:xlink="http://www.w3.org/1999/xlink"
     width="3000.0" height="3000.0" viewBox="-750.0 -750.0 1500.0 1500.0">
<defs>
</defs>
<circle cx="-125.964552" cy="80.522456" r="30" fill="#d65f5f" />
<text x="-125.964552" y="80.522456" font-size="30">Earth</text>
<circle cx="118.123796" cy="-92.655178" r="15" fill="#6acc64" />
<text x="118.123796" y="-92.655178" font-size="15">Evolution</text>
<circle cx="-121.60057" cy="75.208714" r="15" fill="#d65f5f" />
<text x="-121.60057" y="75.208714" font-size="15">Galaxy</text>
<circle cx="-122.554726" cy="79.83068800000001" r="15" fill="#d65f5f" />
<text x="-122.554726" y="79.83068800000001" font-size="15">Planet</text>
<circle cx="19.139420299999998" cy="141.41141" r="0.5" fill="#d65f5f" />
<circle cx="135.548966" cy="-150.748486" r="2" fill="#6acc64" />
<text x="135.548966" y="-150.748486" font-size="2">Astrology and science</text>
<circle cx="217.74490500000002" cy="77.836444" r="15" fill="#ee854a" />
<text x="217.74490500000002" y="77.836444" font-size="15">Bill Nye</text>
<circle cx="-99.92497900000001" cy="-55.2259505" r="15" fill="#dc7ec0" />
<text x="-99.92497900000001" y="-55.2259505" font-size="15">Biology</text>
<circle cx="139.28313" cy="-113.186969" r="2" fill="#6acc64" />
<text x="139.28313" y="-113.186969" font-size="2">Philosophy of science</text>
<circle cx="106.535009" cy="-173.1786" r="0.5" fill="#6acc64" />
<circle cx="-70.62741" cy="-92.38474000000001" r="15" fill="#dc7ec0" />
<text x="-70.62741" y="-92.38474000000001" font-size="15">Sociology</text>
<circle cx="197.69492400000001" cy="89.809013" r="0.5" fill="#ee854a" />
<circle cx="-144.2966" cy="-83.171417" r="15" fill="#dc7ec0" />
<text x="-144.2966" y="-83.171417" font-size="15">Taxonomy (biology)</text>
<circle cx="7.5969971" cy="158.626461" r="0.5" fill="#d65f5f" />
<circle cx="54.186073199999996" cy="61.748281" r="0.5" fill="#956cb4" />
<circle cx="-134.07849000000002" cy="138.09124000000003" r="2" fill="#d65f5f" />
<text x="-134.07849000000002" y="138.09124000000003" font-size="2">Amundsen–Scott South Pole Station</text>
<circle cx="-15.597535100000002" cy="26.852119700000003" r="0.5" fill="#956cb4" />
<circle cx="-93.20006500000001" cy="-56.611562000000006" r="8" fill="#dc7ec0" />
<text x="-93.20006500000001" y="-56.611562000000006" font-size="8">Branches of science</text>
<circle cx="-188.974737" cy="-3.18556252" r="0.5" fill="#8c613c" />
<circle cx="-185.62075000000002" cy="-5.9464489" r="2" fill="#8c613c" />
<text x="-185.62075000000002" y="-5.9464489" font-size="2">Chemical substance</text>
<circle cx="75.346705" cy="118.048259" r="0.5" fill="#956cb4" />
<circle cx="17.2645221" cy="85.04771099999999" r="0.5" fill="#956cb4" />
<circle cx="-26.977979" cy="-205.065868" r="0.5" fill="#dc7ec0" />
<circle cx="214.71450000000002" cy="52.77225099999999" r="0.5" fill="#ee854a" />
<circle cx="67.620406" cy="186.470291" r="2" fill="#ee854a" />
<text x="67.620406" y="186.470291" font-size="2">David Suzuki</text>
<circle cx="151.20525" cy="-124.53335999999999" r="8" fill="#6acc64" />
<text x="151.20525" y="-124.53335999999999" font-size="8">Determinism</text>
<circle cx="-213.655449" cy="22.591034200000003" r="0.5" fill="#8c613c" />
<circle cx="-90.131636" cy="70.548968" r="15" fill="#d65f5f" />
<text x="-90.131636" y="70.548968" font-size="15">Engineering</text>
<circle cx="94.61001900000001" cy="-170.18217300000003" r="0.5" fill="#6acc64" />
<circle cx="193.223744" cy="62.920032" r="15" fill="#ee854a" />
<text x="193.223744" y="62.920032" font-size="15">Gravity</text>
<circle cx="-64.10511100000001" cy="-94.90420099999999" r="8" fill="#dc7ec0" />
<text x="-64.10511100000001" y="-94.90420099999999" font-size="8">Humanities</text>
<circle cx="139.40203899999997" cy="-62.640452" r="2" fill="#6acc64" />
<text x="139.40203899999997" y="-62.640452" font-size="2">Jared Diamond</text>
<circle cx="225.69029" cy="41.1870039" r="0.5" fill="#ee854a" />
<circle cx="58.890531" cy="149.56288899999998" r="0.5" fill="#d65f5f" />
<circle cx="-76.060026" cy="128.50292699999997" r="0.5" fill="#956cb4" />
<circle cx="-108.35585599999999" cy="21.094915099999998" r="8" fill="#ee854a" />
<text x="-108.35585599999999" y="21.094915099999998" font-size="8">Life</text>
<circle cx="13.9373094" cy="64.301748" r="0.5" fill="#956cb4" />
<circle cx="-52.4915251" cy="141.493961" r="8" fill="#d65f5f" />
<text x="-52.4915251" y="141.493961" font-size="8">Muslim world</text>
<circle cx="-65.900275" cy="191.47299499999997" r="0.5" fill="#d65f5f" />
<circle cx="103.506935" cy="-116.294052" r="8" fill="#6acc64" />
<text x="103.506935" y="-116.294052" font-size="8">Neuroscience</text>
<circle cx="249.72432799999999" cy="74.06722400000001" r="0.5" fill="#ee854a" />
<circle cx="35.322170099999994" cy="-35.820008" r="0.5" fill="#956cb4" />
<circle cx="129.05710999999997" cy="-160.463849" r="8" fill="#6acc64" />
<text x="129.05710999999997" y="-160.463849" font-size="8">Pseudoscience</text>
<circle cx="159.471249" cy="-80.5959035" r="2" fill="#6acc64" />
<text x="159.471249" y="-80.5959035" font-size="2">Relationship between religion and science</text>
<circle cx="-61.038628" cy="-107.08937399999999" r="8" fill="#dc7ec0" />
<text x="-61.038628" y="-107.08937399999999" font-size="8">Research</text>
<circle cx="-284.47225099999997" cy="-9.9380918" r="0.5" fill="#8c613c" />
<circle cx="-85.81934199999999" cy="-61.080432" r="15" fill="#dc7ec0" />
<text x="-85.81934199999999" y="-61.080432" font-size="15">Science</text>
<circle cx="23.1782978" cy="185.590335" r="0.5" fill="#d65f5f" />
<circle cx="-57.501626" cy="163.75066399999997" r="0.5" fill="#d65f5f" />
<circle cx="-53.38285750000001" cy="152.97970800000002" r="0.5" fill="#d65f5f" />
<circle cx="-59.906301" cy="131.377638" r="0.5" fill="#d65f5f" />
<circle cx="130.42351699999998" cy="-107.737819" r="15" fill="#6acc64" />
<text x="130.42351699999998" y="-107.737819" font-size="15">Scientific method</text>
<circle cx="95.428984" cy="-164.48552400000003" r="0.5" fill="#6acc64" />
<circle cx="-251.883576" cy="-51.2979362" r="15" fill="#8c613c" />
<text x="-251.883576" y="-51.2979362" font-size="15">Standard deviation</text>
<circle cx="220.39320099999998" cy="19.733105000000002" r="8" fill="#ee854a" />
<text x="220.39320099999998" y="19.733105000000002" font-size="8">TED (conference)</text>
<circle cx="251.80082200000004" cy="-11.0064479" r="0.5" fill="#ee854a" />
<circle cx="-105.269304" cy="189.518693" r="0.5" fill="#d65f5f" />
<circle cx="163.45012599999998" cy="-80.155096" r="0.5" fill="#6acc64" />
<circle cx="227.16575" cy="38.624733" r="0.5" fill="#ee854a" />
<circle cx="204.95334300000002" cy="-146.386464" r="8" fill="#6acc64" />
<text x="204.95334300000002" y="-146.386464" font-size="8">Afterlife</text>
<circle cx="33.372234" cy="56.996639" r="0.5" fill="#956cb4" />
<circle cx="95.70264900000001" cy="66.85037799999999" r="0.5" fill="#956cb4" />
<circle cx="106.265775" cy="-160.17366399999997" r="2" fill="#6acc64" />
<text x="106.265775" y="-160.17366399999997" font-size="2">Anecdotal evidence</text>
<circle cx="105.324555" cy="-205.26356199999998" r="8" fill="#6acc64" />
<text x="105.324555" y="-205.26356199999998" font-size="8">Anthropomorphism</text>
<circle cx="-48.584318999999994" cy="220.80009700000002" r="0.5" fill="#d65f5f" />
<circle cx="-228.913972" cy="17.507002800000002" r="0.5" fill="#8c613c" />
<circle cx="143.9802" cy="-101.99780849999999" r="0.5" fill="#6acc64" />
<circle cx="212.612078" cy="9.6909295" r="0.5" fill="#ee854a" />
<circle cx="195.710914" cy="52.598443800000005" r="0.5" fill="#ee854a" />
<circle cx="-5.5648677" cy="-203.67071199999998" r="0.5" fill="#dc7ec0" />
<circle cx="-176.075606" cy="-42.96643400000001" r="0.5" fill="#8c613c" />
<circle cx="226.64397" cy="-6.615451500000001" r="0.5" fill="#ee854a" />
<circle cx="124.25297499999999" cy="-170.86316100000002" r="0.5" fill="#6acc64" />
<circle cx="-248.53677100000002" cy="11.0737109" r="2" fill="#8c613c" />
<text x="-248.53677100000002" y="11.0737109" font-size="2">Bunsen burner</text>
<circle cx="18.2223461" cy="-32.554867099999996" r="0.5" fill="#956cb4" />
<circle cx="40.379451" cy="109.08114" r="0.5" fill="#956cb4" />
<circle cx="-4.713699200000001" cy="130.954677" r="0.5" fill="#d65f5f" />
<circle cx="-20.851867400000003" cy="-50.985469499999994" r="2" fill="#dc7ec0" />
<text x="-20.851867400000003" y="-50.985469499999994" font-size="2">Citizen science</text>
<circle cx="103.535537" cy="-120.58043899999998" r="2" fill="#6acc64" />
<text x="103.535537" y="-120.58043899999998" font-size="2">Cognitive science</text>
<circle cx="-147.31664500000002" cy="-80.93220099999999" r="2" fill="#8c613c" />
<text x="-147.31664500000002" y="-80.93220099999999" font-size="2">Common name</text>
<circle cx="-236.78697" cy="-20.370631400000004" r="0.5" fill="#8c613c" />
<circle cx="-206.343361" cy="21.5782728" r="0.5" fill="#8c613c" />
<circle cx="-101.321843" cy="-193.72185" r="8" fill="#dc7ec0" />
<text x="-101.321843" y="-193.72185" font-size="8">Computer data storage</text>
<circle cx="124.55471" cy="-131.23474000000002" r="0.5" fill="#6acc64" />
<circle cx="36.6486995" cy="28.876355200000003" r="0.5" fill="#956cb4" />
<circle cx="-70.4643765" cy="104.987932" r="0.5" fill="#d65f5f" />
<circle cx="137.043179" cy="-115.007802" r="0.5" fill="#6acc64" />
<circle cx="-206.89018000000002" cy="-68.991244" r="2" fill="#8c613c" />
<text x="-206.89018000000002" y="-68.991244" font-size="2">Defecation</text>
<circle cx="117.14733799999999" cy="-155.3307" r="0.5" fill="#6acc64" />
<circle cx="-39.73315219999999" cy="-175.610043" r="2" fill="#dc7ec0" />
<text x="-39.73315219999999" y="-175.610043" font-size="2">Design of experiments</text>
<circle cx="-54.24471499999999" cy="-100.63386900000002" r="2" fill="#dc7ec0" />
<text x="-54.24471499999999" y="-100.63386900000002" font-size="2">Digital humanities</text>
<circle cx="-11.0697342" cy="39.3542849" r="2" fill="#956cb4" />
<text x="-11.0697342" y="39.3542849" font-size="2">Doctor of Science</text>
<circle cx="-83.893187" cy="-31.819559800000004" r="2" fill="#dc7ec0" />
<text x="-83.893187" y="-31.819559800000004" font-size="2">Earth science</text>
<circle cx="140.073836" cy="-197.819706" r="0.5" fill="#6acc64" />
<circle cx="-235.78701999999998" cy="52.040533999999994" r="2" fill="#8c613c" />
<text x="-235.78701999999998" y="52.040533999999994" font-size="2">Electromagnetic shielding</text>
<circle cx="95.651654" cy="-125.286805" r="0.5" fill="#6acc64" />
<circle cx="-61.54455299999999" cy="-130.672325" r="2" fill="#dc7ec0" />
<text x="-61.54455299999999" y="-130.672325" font-size="2">Evaluation</text>
<circle cx="-43.2593112" cy="-57.484252" r="0.5" fill="#dc7ec0" />
<circle cx="-87.86046499999999" cy="-99.06704500000001" r="2" fill="#dc7ec0" />
<text x="-87.86046499999999" y="-99.06704500000001" font-size="2">Experiment</text>
<circle cx="-137.94068399999998" cy="-167.34676" r="8" fill="#dc7ec0" />
<text x="-137.94068399999998" y="-167.34676" font-size="8">Forensic science</text>
<circle cx="59.008193999999996" cy="13.144921299999998" r="0.5" fill="#956cb4" />
<circle cx="-100.86774249999999" cy="83.439517" r="2" fill="#d65f5f" />
<text x="-100.86774249999999" y="83.439517" font-size="2">Geophysics</text>
<circle cx="-110.258001" cy="-59.144197" r="2" fill="#dc7ec0" />
<text x="-110.258001" y="-59.144197" font-size="2">Glossary of biology</text>
<circle cx="-9.552510100000001" cy="-97.123061" r="8" fill="#dc7ec0" />
<text x="-9.552510100000001" y="-97.123061" font-size="8">Google Scholar</text>
<circle cx="-55.336904000000004" cy="-154.555058" r="2" fill="#dc7ec0" />
<text x="-55.336904000000004" y="-154.555058" font-size="2">Grounded theory</text>
<circle cx="-141.707419" cy="135.351391" r="2" fill="#d65f5f" />
<text x="-141.707419" y="135.351391" font-size="2">Highest temperature recorded on Earth</text>
<circle cx="-207.01579499999997" cy="-68.30966800000002" r="2" fill="#8c613c" />
<text x="-207.01579499999997" y="-68.30966800000002" font-size="2">Human feces</text>
<circle cx="-261.26639" cy="-83.202609" r="0.5" fill="#8c613c" />
<circle cx="-272.45903999999996" cy="8.2167365" r="0.5" fill="#8c613c" />
<circle cx="-34.749792" cy="-160.06914" r="2" fill="#dc7ec0" />
<text x="-34.749792" y="-160.06914" font-size="2">Internal validity</text>
<circle cx="-236.69982" cy="-72.17056000000001" r="8" fill="#8c613c" />
<text x="-236.69982" y="-72.17056000000001" font-size="8">International Organization for Standardization</text>
<circle cx="173.789784" cy="-73.256043" r="0.5" fill="#6acc64" />
<circle cx="-234.52601199999998" cy="-31.997972999999998" r="0.5" fill="#8c613c" />
<circle cx="119.196707" cy="-160.481937" r="0.5" fill="#6acc64" />
<circle cx="-98.5593385" cy="-141.655899" r="0.5" fill="#dc7ec0" />
<circle cx="-157.10985499999998" cy="-20.5868348" r="2" fill="#dc7ec0" />
<text x="-157.10985499999998" y="-20.5868348" font-size="2">Laboratory</text>
<circle cx="-178.78721" cy="-74.55763" r="0.5" fill="#8c613c" />
<circle cx="-178.512964" cy="-75.117749" r="2" fill="#956cb4" />
<text x="-178.512964" y="-75.117749" font-size="2">Laboratory rat</text>
<circle cx="47.0850499" cy="46.622151800000005" r="2" fill="#956cb4" />
<text x="47.0850499" y="46.622151800000005" font-size="2">Leana Wen</text>
<circle cx="-41.9748462" cy="4.3838127899999995" r="2" fill="#956cb4" />
<text x="-41.9748462" y="4.3838127899999995" font-size="2">Liberal arts education</text>
<circle cx="21.882763699999998" cy="72.15390000000001" r="0.5" fill="#956cb4" />
<circle cx="307.95676799999995" cy="97.93205449999999" r="0.5" fill="#ee854a" />
<circle cx="31.072500199999997" cy="10.2416916" r="0.5" fill="#956cb4" />
<circle cx="139.539827" cy="-51.236227" r="0.5" fill="#6acc64" />
<circle cx="36.3050569" cy="63.88446400000001" r="0.5" fill="#956cb4" />
<circle cx="-228.99319800000004" cy="-11.282845000000002" r="2" fill="#8c613c" />
<text x="-228.99319800000004" y="-11.282845000000002" font-size="2">Microtome</text>
<circle cx="-50.5570814" cy="28.6946618" r="0.5" fill="#956cb4" />
<circle cx="35.199843" cy="47.8403576" r="0.5" fill="#956cb4" />
<circle cx="31.4265301" cy="36.456609" r="2" fill="#956cb4" />
<text x="31.4265301" y="36.456609" font-size="2">National Science Foundation</text>
<circle cx="-88.52225200000001" cy="-57.95374900000001" r="8" fill="#dc7ec0" />
<text x="-88.52225200000001" y="-57.95374900000001" font-size="8">Natural science</text>
<circle cx="165.71093" cy="-71.162532" r="0.5" fill="#6acc64" />
<circle cx="32.9440419" cy="27.824296500000003" r="0.5" fill="#956cb4" />
<circle cx="-25.673581499999997" cy="255.929065" r="0.5" fill="#d65f5f" />
<circle cx="-225.47431899999998" cy="0.77796369" r="0.5" fill="#8c613c" />
<circle cx="312.48181999999997" cy="57.45833799999999" r="0.5" fill="#ee854a" />
<circle cx="-49.705733" cy="-193.448983" r="0.5" fill="#dc7ec0" />
<circle cx="-92.916467" cy="-52.497977000000006" r="0.5" fill="#dc7ec0" />
<circle cx="40.054511" cy="118.050296" r="0.5" fill="#956cb4" />
<circle cx="-186.09586099999999" cy="-36.1146051" r="0.5" fill="#8c613c" />
<circle cx="56.313453" cy="55.743705500000004" r="0.5" fill="#956cb4" />
<circle cx="53.792669000000004" cy="37.8697088" r="0.5" fill="#956cb4" />
<circle cx="111.875547" cy="-103.477122" r="2" fill="#6acc64" />
<text x="111.875547" y="-103.477122" font-size="2">Phenomenon</text>
<circle cx="-92.212246" cy="76.443703" r="15" fill="#d65f5f" />
<text x="-92.212246" y="76.443703" font-size="15">Physics</text>
<circle cx="-72.842063" cy="-95.533914" r="8" fill="#dc7ec0" />
<text x="-72.842063" y="-95.533914" font-size="8">Political science</text>
<circle cx="-196.560826" cy="26.6354795" r="0.5" fill="#8c613c" />
<circle cx="83.787438" cy="-173.23728799999998" r="0.5" fill="#6acc64" />
<circle cx="-204.777062" cy="36.11702150000001" r="0.5" fill="#8c613c" />
<circle cx="-262.50350000000003" cy="30.5392472" r="0.5" fill="#8c613c" />
<circle cx="88.63024800000001" cy="-180.15272099999999" r="2" fill="#6acc64" />
<text x="88.63024800000001" y="-180.15272099999999" font-size="2">Replication crisis</text>
<circle cx="-14.879529000000002" cy="-161.47646200000003" r="0.5" fill="#dc7ec0" />
<circle cx="-26.9700865" cy="-171.16264900000002" r="2" fill="#dc7ec0" />
<text x="-26.9700865" y="-171.16264900000002" font-size="2">Reproducibility</text>
<circle cx="-98.905366" cy="-185.57498399999997" r="0.5" fill="#dc7ec0" />
<circle cx="-45.186288" cy="-147.290115" r="8" fill="#dc7ec0" />
<text x="-45.186288" y="-147.290115" font-size="8">Research design</text>
<circle cx="-50.0270092" cy="-181.701835" r="2" fill="#dc7ec0" />
<text x="-50.0270092" y="-181.701835" font-size="2">Root cause analysis</text>
<circle cx="-228.93346" cy="26.6483518" r="0.5" fill="#8c613c" />
<circle cx="-275.33114" cy="-36.7242848" r="0.5" fill="#8c613c" />
<circle cx="40.857968199999995" cy="-31.680684" r="15" fill="#956cb4" />
<text x="40.857968199999995" y="-31.680684" font-size="15">Sci-Hub</text>
<circle cx="-30.468190899999996" cy="38.28432719999999" r="8" fill="#956cb4" />
<text x="-30.468190899999996" y="38.28432719999999" font-size="8">Science, technology, engineering, and mathematics</text>
<circle cx="-46.00233119999999" cy="232.892835" r="0.5" fill="#d65f5f" />
<circle cx="-60.81192599999999" cy="147.62215300000003" r="0.5" fill="#d65f5f" />
<circle cx="-31.3877109" cy="135.974286" r="0.5" fill="#d65f5f" />
<circle cx="-89.954396" cy="181.41557" r="0.5" fill="#d65f5f" />
<circle cx="-87.400789" cy="155.85494400000002" r="2" fill="#d65f5f" />
<text x="-87.400789" y="155.85494400000002" font-size="2">Science and technology in the Philippines</text>
<circle cx="-32.910213" cy="154.454671" r="0.5" fill="#d65f5f" />
<circle cx="-78.08505600000001" cy="-59.510737999999996" r="2" fill="#dc7ec0" />
<text x="-78.08505600000001" y="-59.510737999999996" font-size="2">Science education</text>
<circle cx="102.431721" cy="-79.649913" r="2" fill="#6acc64" />
<text x="102.431721" y="-79.649913" font-size="2">Scientific American</text>
<circle cx="126.55010899999999" cy="-102.20261799999999" r="2" fill="#6acc64" />
<text x="126.55010899999999" y="-102.20261799999999" font-size="2">Scientific law</text>
<circle cx="110.327546" cy="-143.30792000000002" r="0.5" fill="#6acc64" />
<circle cx="-96.05933399999999" cy="-88.550973" r="0.5" fill="#dc7ec0" />
<circle cx="125.219822" cy="-101.470026" r="2" fill="#6acc64" />
<text x="125.219822" y="-101.470026" font-size="2">Scientific theory</text>
<circle cx="-87.367476" cy="81.78331" r="8" fill="#d65f5f" />
<text x="-87.367476" y="81.78331" font-size="8">Scientist</text>
<circle cx="-0.69460097" cy="-113.382514" r="0.5" fill="#dc7ec0" />
<circle cx="-50.873535999999994" cy="249.675272" r="0.5" fill="#d65f5f" />
<circle cx="-208.60824600000004" cy="-29.6624111" r="0.5" fill="#8c613c" />
<circle cx="168.17731" cy="-159.964945" r="0.5" fill="#6acc64" />
<circle cx="75.164628" cy="118.30928899999999" r="0.5" fill="#956cb4" />
<circle cx="65.783823" cy="-15.392843900000003" r="0.5" fill="#956cb4" />
<circle cx="-283.85023800000005" cy="-8.3274464" r="2" fill="#8c613c" />
<text x="-283.85023800000005" y="-8.3274464" font-size="2">Simple machine</text>
<circle cx="-68.021219" cy="-94.26432050000001" r="15" fill="#dc7ec0" />
<text x="-68.021219" y="-94.26432050000001" font-size="15">Social science</text>
<circle cx="132.327566" cy="-128.8609" r="0.5" fill="#6acc64" />
<circle cx="-132.36279" cy="99.871604" r="2" fill="#d65f5f" />
<text x="-132.36279" y="99.871604" font-size="2">Spaceflight</text>
<circle cx="-156.207499" cy="-108.977799" r="0.5" fill="#dc7ec0" />
<circle cx="-4.3452052" cy="-166.774244" r="0.5" fill="#dc7ec0" />
<circle cx="165.38935" cy="-146.17357300000003" r="0.5" fill="#6acc64" />
<circle cx="49.6175645" cy="191.74603000000002" r="0.5" fill="#d65f5f" />
<circle cx="49.735273" cy="191.380322" r="0.5" fill="#d65f5f" />
<circle cx="202.943496" cy="29.958359199999997" r="0.5" fill="#ee854a" />
<circle cx="4.6905866000000005" cy="82.31204799999999" r="0.5" fill="#956cb4" />
<circle cx="204.068263" cy="-71.752324" r="0.5" fill="#6acc64" />
<circle cx="185.27135900000002" cy="-173.347692" r="0.5" fill="#6acc64" />
<circle cx="168.534499" cy="-106.882783" r="0.5" fill="#6acc64" />
<circle cx="-82.856137" cy="-88.986625" r="2" fill="#dc7ec0" />
<text x="-82.856137" y="-88.986625" font-size="2">Theory</text>
<circle cx="-110.674921" cy="-157.63608" r="0.5" fill="#dc7ec0" />
<circle cx="-222.66389600000002" cy="36.120616" r="8" fill="#8c613c" />
<text x="-222.66389600000002" y="36.120616" font-size="8">Vacuum</text>
<circle cx="-14.2736426" cy="-106.638784" r="2" fill="#dc7ec0" />
<text x="-14.2736426" y="-106.638784" font-size="2">Vancouver system</text>
<circle cx="17.249597400000003" cy="28.8757511" r="0.5" fill="#956cb4" />
<circle cx="-266.126" cy="27.741441" r="0.5" fill="#8c613c" />
<circle cx="4.0280482200000005" cy="210.43057" r="0.5" fill="#ee854a" />
<circle cx="42.70371" cy="114.539873" r="0.5" fill="#956cb4" />
<circle cx="53.9569429" cy="253.230285" r="0.5" fill="#4878d0" />
<circle cx="77.089348" cy="260.61231000000004" r="0.5" fill="#4878d0" />
<circle cx="80.67304" cy="254.045918" r="0.5" fill="#4878d0" />
<circle cx="85.610553" cy="237.658631" r="0.5" fill="#4878d0" />
<circle cx="-246.586389" cy="82.67803599999999" r="0.5" fill="#d65f5f" />
<circle cx="244.74928800000004" cy="47.194686" r="0.5" fill="#ee854a" />
<circle cx="190.09972799999997" cy="81.585532" r="0.5" fill="#ee854a" />
<circle cx="109.342387" cy="95.72164699999999" r="0.5" fill="#956cb4" />
<circle cx="88.5500175" cy="-121.02394500000001" r="0.5" fill="#6acc64" />
<circle cx="-216.40200399999998" cy="26.241206599999995" r="0.5" fill="#8c613c" />
<circle cx="-45.037223" cy="-192.69376" r="0.5" fill="#dc7ec0" />
<circle cx="60.972834999999996" cy="-151.504031" r="0.5" fill="#6acc64" />
<circle cx="-129.606876" cy="98.52801" r="0.5" fill="#d65f5f" />
<circle cx="135.821945" cy="-64.254862" r="0.5" fill="#6acc64" />
<circle cx="110.306903" cy="90.590052" r="0.5" fill="#956cb4" />
<circle cx="37.7260702" cy="45.29497" r="0.5" fill="#956cb4" />
<circle cx="169.446158" cy="-85.730575" r="0.5" fill="#6acc64" />
<circle cx="-242.276202" cy="-0.23392537000000002" r="0.5" fill="#8c613c" />
<circle cx="27.5416365" cy="2.41356262" r="0.5" fill="#956cb4" />
<circle cx="216.98425" cy="-89.543482" r="0.5" fill="#6acc64" />
<circle cx="-86.06032400000001" cy="-48.212703" r="2" fill="#dc7ec0" />
<text x="-86.06032400000001" y="-48.212703" font-size="2">Applied science</text>
<circle cx="-53.9962192" cy="-143.579856" r="0.5" fill="#dc7ec0" />
<circle cx="-253.81713000000002" cy="-32.297537999999996" r="0.5" fill="#8c613c" />
<circle cx="-10.0695245" cy="-181.027987" r="0.5" fill="#dc7ec0" />
<circle cx="-28.2608739" cy="-202.241102" r="0.5" fill="#dc7ec0" />
<circle cx="-212.324525" cy="45.717167999999994" r="0.5" fill="#8c613c" />
<circle cx="19.8797655" cy="135.391214" r="0.5" fill="#956cb4" />
<circle cx="-12.9677324" cy="52.78184590000001" r="0.5" fill="#956cb4" />
<circle cx="-69.81732799999999" cy="-109.95791100000001" r="2" fill="#dc7ec0" />
<text x="-69.81732799999999" y="-109.95791100000001" font-size="2">Behavioural sciences</text>
<circle cx="149.107553" cy="-98.12673849999999" r="0.5" fill="#6acc64" />
<circle cx="114.62210199999998" cy="-170.226714" r="2" fill="#6acc64" />
<text x="114.62210199999998" y="-170.226714" font-size="2">Big Pharma conspiracy theory</text>
<circle cx="20.726587000000002" cy="56.931700000000006" r="0.5" fill="#956cb4" />
<circle cx="-36.596798" cy="-65.19426899999999" r="0.5" fill="#dc7ec0" />
<circle cx="161.697893" cy="-117.447267" r="0.5" fill="#6acc64" />
<circle cx="126.71802500000001" cy="-95.33677300000001" r="0.5" fill="#6acc64" />
<circle cx="156.871309" cy="-128.54900099999998" r="0.5" fill="#6acc64" />
<circle cx="-83.38072400000001" cy="-6.75613841" r="2" fill="#d65f5f" />
<text x="-83.38072400000001" y="-6.75613841" font-size="2">Carbon footprint</text>
<circle cx="126.918232" cy="-191.67233399999998" r="0.5" fill="#6acc64" />
<circle cx="-43.050304499999996" cy="-151.541572" r="0.5" fill="#dc7ec0" />
<circle cx="-193.950008" cy="-16.2559012" r="0.5" fill="#8c613c" />
<circle cx="-208.103042" cy="-17.143861" r="0.5" fill="#8c613c" />
<circle cx="110.71208399999999" cy="52.183691" r="0.5" fill="#956cb4" />
<circle cx="-207.72716999999997" cy="34.275357199999995" r="0.5" fill="#8c613c" />
<circle cx="169.991031" cy="-85.053367" r="0.5" fill="#6acc64" />
<circle cx="-17.5885766" cy="-106.085875" r="2" fill="#dc7ec0" />
<text x="-17.5885766" y="-106.085875" font-size="2">Citation</text>
<circle cx="2.20707172" cy="-91.960323" r="0.5" fill="#dc7ec0" />
<circle cx="129.36413" cy="-202.53633399999998" r="2" fill="#6acc64" />
<text x="129.36413" y="-202.53633399999998" font-size="2">Clarke's three laws</text>
<circle cx="-267.59851999999995" cy="27.249299" r="0.5" fill="#8c613c" />
<circle cx="-283.4734" cy="52.884797000000006" r="0.5" fill="#8c613c" />
<circle cx="294.11403" cy="25.6789274" r="0.5" fill="#ee854a" />
<circle cx="17.298127700000002" cy="16.373472500000002" r="0.5" fill="#956cb4" />
<circle cx="212.27683399999998" cy="53.758936" r="0.5" fill="#ee854a" />
<circle cx="-73.611643" cy="-101.36448" r="2" fill="#dc7ec0" />
<text x="-73.611643" y="-101.36448" font-size="2">Communication studies</text>
<circle cx="-72.75293900000001" cy="-170.584239" r="0.5" fill="#dc7ec0" />
<circle cx="-45.3968599" cy="39.313747199999995" r="0.5" fill="#956cb4" />
<circle cx="-204.197581" cy="64.942892" r="0.5" fill="#8c613c" />
<circle cx="205.22672799999998" cy="-147.40269600000002" r="2" fill="#6acc64" />
<text x="205.22672799999998" y="-147.40269600000002" font-size="2">Consciousness after death</text>
<circle cx="-33.994071999999996" cy="-179.346083" r="2" fill="#dc7ec0" />
<text x="-33.994071999999996" y="-179.346083" font-size="2">Control variable</text>
<circle cx="286.659541" cy="25.2634389" r="0.5" fill="#ee854a" />
<circle cx="-261.137968" cy="-8.485644299999999" r="0.5" fill="#8c613c" />
<circle cx="-61.74812000000001" cy="240.14565399999995" r="0.5" fill="#d65f5f" />
<circle cx="197.003667" cy="-125.815655" r="0.5" fill="#6acc64" />
<circle cx="-221.98927100000003" cy="-3.67757621" r="0.5" fill="#8c613c" />
<circle cx="29.178758000000002" cy="220.805291" r="0.5" fill="#d65f5f" />
<circle cx="-96.488532" cy="-189.67468800000003" r="0.5" fill="#dc7ec0" />
<circle cx="139.981604" cy="-123.59844" r="0.5" fill="#6acc64" />
<circle cx="76.746173" cy="-25.0343884" r="0.5" fill="#956cb4" />
<circle cx="41.578852" cy="35.332574199999996" r="0.5" fill="#956cb4" />
<circle cx="-87.980767" cy="-177.38966699999997" r="0.5" fill="#dc7ec0" />
<circle cx="-23.725950499999996" cy="65.846739" r="0.5" fill="#956cb4" />
<circle cx="119.44433899999999" cy="-136.922401" r="0.5" fill="#6acc64" />
<circle cx="186.829776" cy="80.8744545" r="0.5" fill="#ee854a" />
<circle cx="-89.369707" cy="155.853565" r="0.5" fill="#d65f5f" />
<circle cx="216.884192" cy="75.135074" r="2" fill="#ee854a" />
<text x="216.884192" y="75.135074" font-size="2">Derek Muller</text>
<circle cx="154.38266900000002" cy="-52.987144" r="0.5" fill="#6acc64" />
<circle cx="-121.85548899999998" cy="-129.57014" r="0.5" fill="#dc7ec0" />
<circle cx="-78.786547" cy="-70.485366" r="0.5" fill="#dc7ec0" />
<circle cx="-241.91271999999998" cy="59.26412799999999" r="0.5" fill="#8c613c" />
<circle cx="73.51898399999999" cy="-171.00713000000002" r="0.5" fill="#6acc64" />
<circle cx="210.818405" cy="76.528389" r="0.5" fill="#ee854a" />
<circle cx="-75.648832" cy="-25.192450499999996" r="0.5" fill="#dc7ec0" />
<circle cx="-64.349873" cy="-155.159144" r="0.5" fill="#dc7ec0" />
<circle cx="-43.279726000000004" cy="-37.867319" r="0.5" fill="#dc7ec0" />
<circle cx="43.3575541" cy="87.361673" r="0.5" fill="#956cb4" />
<circle cx="189.635824" cy="54.240052999999996" r="8" fill="#ee854a" />
<text x="189.635824" y="54.240052999999996" font-size="8">Event Horizon Telescope</text>
<circle cx="-86.40439500000001" cy="-112.31423" r="2" fill="#dc7ec0" />
<text x="-86.40439500000001" y="-112.31423" font-size="2">Evidence</text>
<circle cx="-74.299267" cy="-187.08823" r="0.5" fill="#dc7ec0" />
<circle cx="-88.17055099999999" cy="-146.430025" r="0.5" fill="#dc7ec0" />
<circle cx="-47.9335535" cy="-148.379056" r="2" fill="#dc7ec0" />
<text x="-47.9335535" y="-148.379056" font-size="2">Exploratory research</text>
<circle cx="64.683654" cy="3.57488572" r="0.5" fill="#956cb4" />
<circle cx="87.29821100000001" cy="-194.637114" r="0.5" fill="#6acc64" />
<circle cx="-43.071913499999994" cy="-121.39862000000002" r="0.5" fill="#dc7ec0" />
<circle cx="-15.368213" cy="-199.926566" r="0.5" fill="#dc7ec0" />
<circle cx="207.662028" cy="-153.615441" r="8" fill="#6acc64" />
<text x="207.662028" y="-153.615441" font-size="8">Fasting</text>
<circle cx="-127.768214" cy="-67.45694900000001" r="0.5" fill="#dc7ec0" />
<circle cx="-66.964366" cy="-161.221872" r="0.5" fill="#dc7ec0" />
<circle cx="178.15168" cy="-96.71192649999999" r="0.5" fill="#6acc64" />
<circle cx="-36.347654000000006" cy="-148.307775" r="0.5" fill="#dc7ec0" />
<circle cx="181.890828" cy="42.0026271" r="0.5" fill="#ee854a" />
<circle cx="49.602119" cy="145.54864800000001" r="0.5" fill="#d65f5f" />
<circle cx="71.153537" cy="84.230594" r="0.5" fill="#956cb4" />
<circle cx="-105.356629" cy="-37.8782565" r="2" fill="#dc7ec0" />
<text x="-105.356629" y="-37.8782565" font-size="2">Food science</text>
<circle cx="13.850721499999999" cy="102.39736500000001" r="0.5" fill="#956cb4" />
<circle cx="-203.782285" cy="-5.012806680000001" r="0.5" fill="#8c613c" />
<circle cx="39.757559099999995" cy="76.78188" r="0.5" fill="#956cb4" />
<circle cx="-288.700146" cy="-35.767578" r="0.5" fill="#8c613c" />
<circle cx="171.992842" cy="-149.173283" r="2" fill="#6acc64" />
<text x="171.992842" y="-149.173283" font-size="2">Futures studies</text>
<circle cx="-59.65808100000001" cy="-29.024233000000002" r="0.5" fill="#dc7ec0" />
<circle cx="-127.59268200000001" cy="65.6034575" r="0.5" fill="#8c613c" />
<circle cx="-218.08157" cy="47.798937900000006" r="0.5" fill="#8c613c" />
<circle cx="-59.926321" cy="-168.550333" r="0.5" fill="#dc7ec0" />
<circle cx="233.202291" cy="50.572963" r="0.5" fill="#ee854a" />
<circle cx="66.517976" cy="13.0819815" r="0.5" fill="#956cb4" />
<circle cx="-204.62626099999997" cy="54.3041835" r="0.5" fill="#8c613c" />
<circle cx="69.440616" cy="43.532552" r="0.5" fill="#956cb4" />
<circle cx="42.6855429" cy="4.6352418" r="0.5" fill="#956cb4" />
<circle cx="195.29683599999998" cy="-99.477196" r="0.5" fill="#6acc64" />
<circle cx="-64.9054" cy="-198.07088699999997" r="0.5" fill="#dc7ec0" />
<circle cx="5.38959722" cy="-109.26922300000001" r="0.5" fill="#dc7ec0" />
<circle cx="127.32923" cy="-116.838841" r="0.5" fill="#6acc64" />
<circle cx="-169.255653" cy="-13.1633376" r="2" fill="#8c613c" />
<text x="-169.255653" y="-13.1633376" font-size="2">Hazard symbol</text>
<circle cx="83.233927" cy="2.58443185" r="0.5" fill="#956cb4" />
<circle cx="313.148262" cy="57.098419" r="0.5" fill="#ee854a" />
<circle cx="186.880911" cy="89.644303" r="0.5" fill="#ee854a" />
<circle cx="-20.621006" cy="-161.83799100000002" r="0.5" fill="#dc7ec0" />
<circle cx="134.943459" cy="-156.28774" r="0.5" fill="#6acc64" />
<circle cx="-202.731249" cy="64.609048" r="0.5" fill="#8c613c" />
<circle cx="6.91462632" cy="-131.287653" r="0.5" fill="#dc7ec0" />
<circle cx="116.68664000000001" cy="-113.42855999999998" r="0.5" fill="#6acc64" />
<circle cx="-206.095449" cy="-31.120116999999997" r="0.5" fill="#8c613c" />
<circle cx="-30.472281000000002" cy="-125.874392" r="0.5" fill="#dc7ec0" />
<circle cx="-60.25770800000001" cy="-182.37159499999999" r="0.5" fill="#dc7ec0" />
<circle cx="-22.0490858" cy="196.532105" r="0.5" fill="#d65f5f" />
<circle cx="42.001113000000004" cy="-21.680850099999997" r="0.5" fill="#956cb4" />
<circle cx="-193.18554499999996" cy="-49.746382" r="0.5" fill="#8c613c" />
<circle cx="32.11677280000001" cy="-7.948670099999999" r="0.5" fill="#956cb4" />
<circle cx="32.277203" cy="95.514937" r="0.5" fill="#956cb4" />
<circle cx="-133.269101" cy="149.29974500000003" r="0.5" fill="#d65f5f" />
<circle cx="-10.859047499999999" cy="88.662049" r="0.5" fill="#956cb4" />
<circle cx="31.101662899999997" cy="97.8383" r="0.5" fill="#956cb4" />
<circle cx="-118.87752800000001" cy="-69.60188199999999" r="0.5" fill="#dc7ec0" />
<circle cx="-93.35137" cy="-162.318471" r="0.5" fill="#dc7ec0" />
<circle cx="153.538938" cy="-80.69845" r="0.5" fill="#6acc64" />
<circle cx="-127.398187" cy="149.036258" r="0.5" fill="#d65f5f" />
<circle cx="77.753627" cy="29.297412899999998" r="0.5" fill="#956cb4" />
<circle cx="-7.2943458" cy="2.0502909000000002" r="0.5" fill="#956cb4" />
<circle cx="8.3627432" cy="-8.6885918" r="0.5" fill="#956cb4" />
<circle cx="-203.12226199999998" cy="45.040359" r="0.5" fill="#8c613c" />
<circle cx="71.751932" cy="9.386286" r="0.5" fill="#956cb4" />
<circle cx="152.67396200000002" cy="-111.17361500000001" r="0.5" fill="#6acc64" />
<circle cx="-68.084233" cy="138.662104" r="0.5" fill="#d65f5f" />
<circle cx="-120.76017100000001" cy="-44.906519" r="0.5" fill="#dc7ec0" />
<circle cx="-18.8487355" cy="65.869678" r="0.5" fill="#956cb4" />
<circle cx="198.79585600000001" cy="-86.082717" r="0.5" fill="#6acc64" />
<circle cx="-221.760616" cy="-14.355635" r="2" fill="#8c613c" />
<text x="-221.760616" y="-14.355635" font-size="2">Laminar flow cabinet</text>
<circle cx="-216.181595" cy="7.808873800000001" r="0.5" fill="#8c613c" />
<circle cx="77.836297" cy="112.755342" r="0.5" fill="#956cb4" />
<circle cx="-234.04787" cy="-56.805510999999996" r="0.5" fill="#8c613c" />
<circle cx="-33.1193562" cy="234.73874899999998" r="0.5" fill="#d65f5f" />
<circle cx="-51.820026999999996" cy="-129.69369" r="8" fill="#dc7ec0" />
<text x="-51.820026999999996" y="-129.69369" font-size="8">Literature review</text>
<circle cx="-94.54879700000001" cy="-152.317641" r="0.5" fill="#dc7ec0" />
<circle cx="19.3019085" cy="-165.643912" r="0.5" fill="#8c613c" />
<circle cx="8.422290799999999" cy="-116.011357" r="0.5" fill="#dc7ec0" />
<circle cx="71.40818300000001" cy="-117.60637000000001" r="0.5" fill="#6acc64" />
<circle cx="-246.906051" cy="-8.7252319" r="2" fill="#8c613c" />
<text x="-246.906051" y="-8.7252319" font-size="2">Magnifying glass</text>
<circle cx="229.41471" cy="-4.2246589" r="0.5" fill="#ee854a" />
<circle cx="83.174105" cy="-135.641954" r="0.5" fill="#6acc64" />
<circle cx="-1.8058499200000002" cy="50.9526318" r="0.5" fill="#956cb4" />
<circle cx="39.8556249" cy="53.150552" r="0.5" fill="#956cb4" />
<circle cx="-91.162274" cy="65.13444" r="0.5" fill="#d65f5f" />
<circle cx="221.36975" cy="37.586836" r="0.5" fill="#ee854a" />
<circle cx="86.274643" cy="58.888508" r="0.5" fill="#956cb4" />
<circle cx="-8.6407496" cy="41.814437" r="8" fill="#956cb4" />
<text x="-8.6407496" y="41.814437" font-size="8">Master of Science</text>
<circle cx="91.43789199999999" cy="40.8829918" r="0.5" fill="#956cb4" />
<circle cx="-179.334022" cy="-44.071062" r="0.5" fill="#8c613c" />
<circle cx="24.350297299999998" cy="-1.5982988" r="0.5" fill="#956cb4" />
<circle cx="-8.064973" cy="-123.43905699999999" r="0.5" fill="#dc7ec0" />
<circle cx="-33.709368" cy="125.66250199999999" r="0.5" fill="#d65f5f" />
<circle cx="177.17891799999998" cy="-118.776574" r="0.5" fill="#6acc64" />
<circle cx="188.61051999999998" cy="-83.57661200000001" r="0.5" fill="#6acc64" />
<circle cx="-38.59394" cy="257.98222100000004" r="0.5" fill="#d65f5f" />
<circle cx="-24.5945399" cy="82.172482" r="0.5" fill="#956cb4" />
<circle cx="237.977572" cy="98.642635" r="0.5" fill="#ee854a" />
<circle cx="-30.520049000000004" cy="113.07715999999998" r="0.5" fill="#956cb4" />
<circle cx="-44.531130000000005" cy="78.92282300000001" r="0.5" fill="#956cb4" />
<circle cx="-44.01237890000001" cy="85.207493" r="0.5" fill="#956cb4" />
<circle cx="-30.568934199999994" cy="12.2670751" r="0.5" fill="#956cb4" />
<circle cx="-185.41527200000002" cy="46.9018949" r="0.5" fill="#8c613c" />
<circle cx="200.610249" cy="-15.6563211" r="0.5" fill="#ee854a" />
<circle cx="-58.186505999999994" cy="-155.533028" r="0.5" fill="#dc7ec0" />
<circle cx="-264.888064" cy="-81.019778" r="0.5" fill="#8c613c" />
<circle cx="-75.514173" cy="246.05884800000004" r="0.5" fill="#d65f5f" />
<circle cx="-70.75164600000001" cy="241.16001" r="0.5" fill="#d65f5f" />
<circle cx="-1.68716814" cy="51.036608" r="0.5" fill="#956cb4" />
<circle cx="268.41759" cy="87.144358" r="0.5" fill="#ee854a" />
<circle cx="-54.88665" cy="180.30695899999998" r="0.5" fill="#d65f5f" />
<circle cx="39.102455000000006" cy="82.05715699999999" r="0.5" fill="#956cb4" />
<circle cx="-22.5314586" cy="192.506608" r="0.5" fill="#d65f5f" />
<circle cx="24.513838999999997" cy="40.9962819" r="0.5" fill="#956cb4" />
<circle cx="8.412392100000002" cy="57.768018000000005" r="0.5" fill="#956cb4" />
<circle cx="-18.8605466" cy="-148.909922" r="0.5" fill="#dc7ec0" />
<circle cx="-3.83493509" cy="150.68096400000002" r="2" fill="#d65f5f" />
<text x="-3.83493509" y="150.68096400000002" font-size="2">Necessity is the mother of invention</text>
<circle cx="116.52304299999999" cy="77.63155400000001" r="2" fill="#956cb4" />
<text x="116.52304299999999" y="77.63155400000001" font-size="2">Noel Fitzpatrick</text>
<circle cx="123.519305" cy="-205.30535199999997" r="0.5" fill="#6acc64" />
<circle cx="242.55119000000002" cy="-12.5562248" r="0.5" fill="#ee854a" />
<circle cx="15.686654200000001" cy="34.54901100000001" r="0.5" fill="#956cb4" />
<circle cx="18.5244059" cy="37.065455" r="0.5" fill="#956cb4" />
<circle cx="-276.75368" cy="-35.431242" r="0.5" fill="#8c613c" />
<circle cx="-107.00028499999999" cy="-121.02258" r="0.5" fill="#dc7ec0" />
<circle cx="-133.13027" cy="-50.869515199999995" r="0.5" fill="#dc7ec0" />
<circle cx="169.735636" cy="-121.52742" r="0.5" fill="#6acc64" />
<circle cx="-86.2844115" cy="-31.625425999999997" r="0.5" fill="#dc7ec0" />
<circle cx="-91.97939099999999" cy="-63.744352000000006" r="0.5" fill="#dc7ec0" />
<circle cx="14.746479299999999" cy="-24.741801000000002" r="0.5" fill="#956cb4" />
<circle cx="122.50917" cy="68.365395" r="0.5" fill="#956cb4" />
<circle cx="-52.860003" cy="-159.307505" r="0.5" fill="#dc7ec0" />
<circle cx="-264.61321599999997" cy="-32.219004999999996" r="0.5" fill="#8c613c" />
<circle cx="-244.31341899999998" cy="50.782585000000005" r="0.5" fill="#8c613c" />
<circle cx="202.33599399999997" cy="38.3731978" r="0.5" fill="#ee854a" />
<circle cx="-197.29204600000003" cy="1.8514433000000003" r="0.5" fill="#8c613c" />
<circle cx="-198.534224" cy="-1.6597959" r="0.5" fill="#8c613c" />
<circle cx="109.845351" cy="90.93496999999999" r="2" fill="#956cb4" />
<text x="109.845351" y="90.93496999999999" font-size="2">Patrick Collison</text>
<circle cx="-3.8275141799999997" cy="-15.528966599999997" r="0.5" fill="#956cb4" />
<circle cx="-274.11888" cy="-52.135458899999996" r="0.5" fill="#8c613c" />
<circle cx="-99.33253400000001" cy="-89.161695" r="0.5" fill="#dc7ec0" />
<circle cx="22.640633400000002" cy="154.17234000000002" r="0.5" fill="#d65f5f" />
<circle cx="97.54168899999999" cy="42.6958469" r="0.5" fill="#956cb4" />
<circle cx="40.705812" cy="116.46904500000001" r="0.5" fill="#956cb4" />
<circle cx="-242.659732" cy="-15.816211599999999" r="0.5" fill="#8c613c" />
<circle cx="-130.778361" cy="131.275851" r="0.5" fill="#d65f5f" />
<circle cx="38.607438800000004" cy="-6.7361150499999995" r="0.5" fill="#956cb4" />
<circle cx="-223.94271899999998" cy="-32.8805792" r="0.5" fill="#8c613c" />
<circle cx="16.5920468" cy="4.19870465" r="0.5" fill="#956cb4" />
<circle cx="-116.438301" cy="-171.428439" r="0.5" fill="#dc7ec0" />
<circle cx="-201.87873299999998" cy="-30.244459000000003" r="0.5" fill="#8c613c" />
<circle cx="-88.252829" cy="-192.936632" r="0.5" fill="#dc7ec0" />
<circle cx="115.12025" cy="-124.20345" r="0.5" fill="#6acc64" />
<circle cx="-22.389206" cy="-71.232084" r="0.5" fill="#dc7ec0" />
<circle cx="-25.953064200000004" cy="-104.466299" r="2" fill="#dc7ec0" />
<text x="-25.953064200000004" y="-104.466299" font-size="2">Publication</text>
<circle cx="-19.503767500000002" cy="206.288929" r="0.5" fill="#d65f5f" />
<circle cx="15.744764000000002" cy="-11.5801147" r="0.5" fill="#956cb4" />
<circle cx="47.42792599999999" cy="30.2885569" r="0.5" fill="#956cb4" />
<circle cx="51.0564621" cy="14.1367373" r="0.5" fill="#956cb4" />
<circle cx="-57.334934999999994" cy="-48.3173642" r="0.5" fill="#dc7ec0" />
<circle cx="-34.180503" cy="-176.210069" r="0.5" fill="#dc7ec0" />
<circle cx="86.42576600000001" cy="-180.334329" r="0.5" fill="#6acc64" />
<circle cx="1.5912070999999999" cy="11.870334" r="2" fill="#956cb4" />
<text x="1.5912070999999999" y="11.870334" font-size="2">Research and development</text>
<circle cx="-53.473322" cy="-138.03097000000002" r="0.5" fill="#dc7ec0" />
<circle cx="-43.628473" cy="-44.687811" r="0.5" fill="#dc7ec0" />
<circle cx="198.33081099999998" cy="-130.869109" r="0.5" fill="#6acc64" />
<circle cx="114.33380000000001" cy="62.587322" r="0.5" fill="#956cb4" />
<circle cx="24.5884135" cy="48.3462035" r="0.5" fill="#956cb4" />
<circle cx="74.455234" cy="60.07645699999999" r="0.5" fill="#956cb4" />
<circle cx="-233.849441" cy="-8.3779913" r="0.5" fill="#8c613c" />
<circle cx="160.140554" cy="-37.8746956" r="0.5" fill="#6acc64" />
<circle cx="-122.33218899999999" cy="155.1725" r="0.5" fill="#d65f5f" />
<circle cx="-7.2642073" cy="112.10107300000001" r="0.5" fill="#956cb4" />
<circle cx="-32.721002999999996" cy="35.375109" r="0.5" fill="#956cb4" />
<circle cx="-100.30734000000001" cy="-108.354722" r="0.5" fill="#dc7ec0" />
<circle cx="214.612391" cy="67.664247" r="0.5" fill="#ee854a" />
<circle cx="-34.029786" cy="-85.38770099999999" r="0.5" fill="#dc7ec0" />
<circle cx="61.413054499999994" cy="26.4486257" r="0.5" fill="#956cb4" />
<circle cx="78.37102" cy="52.767696099999995" r="0.5" fill="#956cb4" />
<circle cx="219.477146" cy="84.236558" r="0.5" fill="#ee854a" />
<circle cx="-23.7063673" cy="255.33319000000003" r="0.5" fill="#d65f5f" />
<circle cx="89.249762" cy="54.977958" r="0.5" fill="#956cb4" />
<circle cx="-77.946309" cy="192.73945600000002" r="0.5" fill="#d65f5f" />
<circle cx="-58.36714800000001" cy="161.483686" r="0.5" fill="#d65f5f" />
<circle cx="-66.343291" cy="150.758713" r="0.5" fill="#d65f5f" />
<circle cx="-47.948523" cy="183.837717" r="0.5" fill="#d65f5f" />
<circle cx="-12.559945999999998" cy="113.84398200000001" r="0.5" fill="#956cb4" />
<circle cx="-77.93400299999999" cy="193.22263100000004" r="0.5" fill="#d65f5f" />
<circle cx="-45.369254000000005" cy="167.45277499999997" r="0.5" fill="#d65f5f" />
<circle cx="-42.167300000000004" cy="166.892621" r="0.5" fill="#d65f5f" />
<circle cx="-13.150728500000001" cy="124.624094" r="0.5" fill="#d65f5f" />
<circle cx="-21.3246138" cy="172.830672" r="2" fill="#d65f5f" />
<text x="-21.3246138" y="172.830672" font-size="2">Science and technology in India</text>
<circle cx="-98.19129950000001" cy="186.42694" r="0.5" fill="#d65f5f" />
<circle cx="-59.57993999999999" cy="168.066584" r="0.5" fill="#d65f5f" />
<circle cx="-72.579493" cy="158.895212" r="0.5" fill="#d65f5f" />
<circle cx="-74.914168" cy="139.451508" r="0.5" fill="#d65f5f" />
<circle cx="-84.878731" cy="183.454334" r="0.5" fill="#d65f5f" />
<circle cx="-71.43236800000001" cy="112.61818399999999" r="0.5" fill="#d65f5f" />
<circle cx="-40.9525459" cy="178.73419900000002" r="0.5" fill="#d65f5f" />
<circle cx="-46.674659500000004" cy="151.09940999999998" r="0.5" fill="#d65f5f" />
<circle cx="-30.931474" cy="139.050688" r="0.5" fill="#d65f5f" />
<circle cx="-20.8139694" cy="-70.777798" r="0.5" fill="#dc7ec0" />
<circle cx="-19.9825535" cy="163.067562" r="0.5" fill="#d65f5f" />
<circle cx="-50.015385" cy="240.19578100000004" r="0.5" fill="#d65f5f" />
<circle cx="-49.2969029" cy="-69.063974" r="0.5" fill="#dc7ec0" />
<circle cx="-36.015469" cy="-93.43856900000002" r="0.5" fill="#dc7ec0" />
<circle cx="-56.41429500000001" cy="208.87197799999998" r="0.5" fill="#d65f5f" />
<circle cx="-73.218278" cy="-79.013382" r="0.5" fill="#dc7ec0" />
<circle cx="149.951326" cy="-139.16294" r="0.5" fill="#6acc64" />
<circle cx="-104.69102699999999" cy="-160.905724" r="0.5" fill="#dc7ec0" />
<circle cx="-118.850319" cy="-85.92876600000001" r="0.5" fill="#dc7ec0" />
<circle cx="112.81596199999998" cy="-86.896229" r="0.5" fill="#6acc64" />
<circle cx="123.64492" cy="-107.429938" r="0.5" fill="#6acc64" />
<circle cx="99.038541" cy="-150.641673" r="0.5" fill="#6acc64" />
<circle cx="129.2347" cy="-81.640391" r="0.5" fill="#6acc64" />
<circle cx="-116.578091" cy="-67.279184" r="0.5" fill="#dc7ec0" />
<circle cx="148.677886" cy="-117.64398799999998" r="2" fill="#6acc64" />
<text x="148.677886" y="-117.64398799999998" font-size="2">Scientism</text>
<circle cx="163.469229" cy="-139.906844" r="0.5" fill="#6acc64" />
<circle cx="32.08136819999999" cy="-8.3047636" r="0.5" fill="#956cb4" />
<circle cx="-44.216927999999996" cy="-139.386303" r="0.5" fill="#dc7ec0" />
<circle cx="-117.11611100000002" cy="-145.21914400000003" r="0.5" fill="#dc7ec0" />
<circle cx="179.64594200000002" cy="-148.136765" r="0.5" fill="#6acc64" />
<circle cx="-248.47669000000002" cy="60.212936" r="0.5" fill="#8c613c" />
<circle cx="-278.78779600000007" cy="-31.741377499999995" r="0.5" fill="#8c613c" />
<circle cx="-59.777452" cy="-68.651674" r="0.5" fill="#dc7ec0" />
<circle cx="131.933032" cy="-123.61989499999999" r="0.5" fill="#6acc64" />
<circle cx="190.70353400000002" cy="86.58223" r="0.5" fill="#ee854a" />
<circle cx="-258.384021" cy="-36.5718682" r="0.5" fill="#8c613c" />
<circle cx="-73.1779965" cy="-131.913859" r="2" fill="#dc7ec0" />
<text x="-73.1779965" y="-131.913859" font-size="2">Speed reading</text>
<circle cx="-109.041191" cy="-128.22873" r="2" fill="#dc7ec0" />
<text x="-109.041191" y="-128.22873" font-size="2">State of the art</text>
<circle cx="227.49551999999997" cy="63.604232999999994" r="0.5" fill="#ee854a" />
<circle cx="-224.922481" cy="9.8279867" r="0.5" fill="#8c613c" />
<circle cx="-70.80258500000001" cy="-17.2794412" r="0.5" fill="#dc7ec0" />
<circle cx="-192.033436" cy="69.56892599999999" r="0.5" fill="#8c613c" />
<circle cx="-56.87275299999999" cy="125.207768" r="0.5" fill="#956cb4" />
<circle cx="-136.64669199999997" cy="102.672661" r="0.5" fill="#d65f5f" />
<circle cx="95.616878" cy="-110.395747" r="0.5" fill="#6acc64" />
<circle cx="-130.06304500000002" cy="-93.56977" r="0.5" fill="#dc7ec0" />
<circle cx="-128.765378" cy="-126.640185" r="0.5" fill="#dc7ec0" />
<circle cx="6.96332525" cy="187.07679199999998" r="0.5" fill="#d65f5f" />
<circle cx="170.93496" cy="-76.25373" r="0.5" fill="#6acc64" />
<circle cx="126.778806" cy="-41.099156" r="0.5" fill="#6acc64" />
<circle cx="-83.20908750000001" cy="216.61475500000003" r="0.5" fill="#d65f5f" />
<circle cx="259.625058" cy="119.820176" r="0.5" fill="#ee854a" />
<circle cx="51.88599500000001" cy="-11.047310399999999" r="0.5" fill="#956cb4" />
<circle cx="155.715231" cy="-58.3763495" r="0.5" fill="#6acc64" />
<circle cx="250.29850999999996" cy="19.8811746" r="0.5" fill="#ee854a" />
<circle cx="168.86617999999999" cy="-105.384881" r="0.5" fill="#6acc64" />
<circle cx="239.83229900000003" cy="32.681698000000004" r="0.5" fill="#ee854a" />
<circle cx="-100.991114" cy="-46.603381999999996" r="0.5" fill="#dc7ec0" />
<circle cx="-72.14536000000001" cy="-117.97342199999999" r="0.5" fill="#dc7ec0" />
<circle cx="96.934929" cy="-172.763339" r="0.5" fill="#6acc64" />
<circle cx="-65.636956" cy="-140.850059" r="0.5" fill="#dc7ec0" />
<circle cx="240.78700800000001" cy="61.06569700000001" r="0.5" fill="#ee854a" />
<circle cx="135.965676" cy="-92.71374" r="0.5" fill="#6acc64" />
<circle cx="209.91072899999998" cy="21.0993328" r="0.5" fill="#ee854a" />
<circle cx="-42.412853" cy="-79.742068" r="0.5" fill="#dc7ec0" />
<circle cx="69.429437" cy="81.497304" r="0.5" fill="#956cb4" />
<circle cx="64.268169" cy="8.0209955" r="0.5" fill="#956cb4" />
<circle cx="-222.208" cy="36.2724754" r="0.5" fill="#8c613c" />
<circle cx="-213.122168" cy="-14.8270451" r="8" fill="#8c613c" />
<text x="-213.122168" y="-14.8270451" font-size="8">Ultraviolet–visible spectroscopy</text>
<circle cx="20.0122321" cy="43.427706" r="0.5" fill="#956cb4" />
<circle cx="160.30044800000002" cy="-64.39290899999999" r="0.5" fill="#6acc64" />
<circle cx="-190.02216099999998" cy="31.605672" r="8" fill="#8c613c" />
<text x="-190.02216099999998" y="31.605672" font-size="8">Vantablack</text>
<circle cx="-13.7462752" cy="183.64509800000002" r="0.5" fill="#d65f5f" />
<circle cx="86.594515" cy="76.11270099999999" r="0.5" fill="#956cb4" />
<circle cx="-100.676198" cy="-181.585894" r="0.5" fill="#dc7ec0" />
<circle cx="46.3168545" cy="-10.5512456" r="0.5" fill="#956cb4" />
<circle cx="141.004479" cy="-169.61749700000001" r="0.5" fill="#6acc64" />
<circle cx="100.11364649999999" cy="32.7930939" r="0.5" fill="#956cb4" />
<circle cx="82.610927" cy="36.4902608" r="0.5" fill="#956cb4" />
<circle cx="152.423726" cy="-34.29663300000001" r="0.5" fill="#6acc64" />
<circle cx="190.750028" cy="86.781317" r="0.5" fill="#ee854a" />
<circle cx="-283.5987" cy="52.6838459" r="0.5" fill="#8c613c" />
<circle cx="101.15954800000002" cy="-194.676272" r="0.5" fill="#6acc64" />
<circle cx="128.229969" cy="-42.894334" r="0.5" fill="#6acc64" />
<circle cx="103.093368" cy="-197.714776" r="0.5" fill="#6acc64" />
<circle cx="-29.1584041" cy="-141.87226199999998" r="0.5" fill="#dc7ec0" />
<circle cx="-7.4444244" cy="-94.70517000000001" r="0.5" fill="#dc7ec0" />
<circle cx="-221.95606999999998" cy="53.045393100000005" r="0.5" fill="#8c613c" />
<circle cx="-15.072647799999999" cy="-44.934183000000004" r="0.5" fill="#ee854a" />
<circle cx="-211.418151" cy="-59.862047000000004" r="0.5" fill="#8c613c" />
<circle cx="70.352926" cy="262.29825999999997" r="0.5" fill="#4878d0" />
<circle cx="87.562202" cy="264.53171499999996" r="0.5" fill="#4878d0" />
<circle cx="74.09955" cy="266.631148" r="0.5" fill="#4878d0" />
<circle cx="78.88339199999999" cy="267.538649" r="0.5" fill="#4878d0" />
<circle cx="81.165637" cy="260.991045" r="0.5" fill="#4878d0" />
<circle cx="83.34713450000001" cy="261.04621199999997" r="0.5" fill="#4878d0" />
<circle cx="76.333397" cy="254.856938" r="0.5" fill="#4878d0" />
<circle cx="290.22634899999997" cy="88.42737400000001" r="0.5" fill="#ee854a" />
<circle cx="-259.719082" cy="-56.241800999999995" r="0.5" fill="#8c613c" />
<circle cx="0.20329085700000002" cy="67.130854" r="0.5" fill="#956cb4" />
<circle cx="11.4794974" cy="74.213503" r="0.5" fill="#956cb4" />
<circle cx="-192.703532" cy="-21.8566054" r="0.5" fill="#8c613c" />
<circle cx="-232.03620999999998" cy="37.795995999999995" r="0.5" fill="#8c613c" />
<circle cx="-41.682118800000005" cy="243.191998" r="0.5" fill="#d65f5f" />
<circle cx="-50.67177709999999" cy="-116.01137100000001" r="0.5" fill="#dc7ec0" />
<circle cx="271.399485" cy="105.941626" r="0.5" fill="#ee854a" />
<circle cx="287.61012" cy="17.8709762" r="0.5" fill="#ee854a" />
<circle cx="235.00183000000004" cy="74.27819" r="0.5" fill="#ee854a" />
<circle cx="32.9372155" cy="-20.228194000000002" r="0.5" fill="#956cb4" />
<circle cx="-46.9088438" cy="-110.420289" r="2" fill="#dc7ec0" />
<text x="-46.9088438" y="-110.420289" font-size="2">Basic research</text>
<circle cx="187.65068699999998" cy="8.4115024" r="0.5" fill="#ee854a" />
<circle cx="284.135075" cy="90.366815" r="0.5" fill="#ee854a" />
<circle cx="18.257589" cy="-21.2423022" r="0.5" fill="#956cb4" />
<circle cx="290.41264" cy="10.466618400000002" r="0.5" fill="#ee854a" />
<circle cx="273.528479" cy="21.066630200000002" r="0.5" fill="#ee854a" />
<circle cx="146.09211399999998" cy="-158.341218" r="0.5" fill="#6acc64" />
<circle cx="169.16118799999998" cy="-131.64715199999998" r="0.5" fill="#6acc64" />
<circle cx="239.36454500000002" cy="81.148949" r="0.5" fill="#ee854a" />
<circle cx="288.15584" cy="15.066234400000003" r="0.5" fill="#ee854a" />
<circle cx="-133.071071" cy="77.421981" r="0.5" fill="#ee854a" />
<circle cx="-252.42448" cy="65.89088100000001" r="0.5" fill="#8c613c" />
<circle cx="102.624053" cy="54.427817499999996" r="0.5" fill="#956cb4" />
<circle cx="285.855192" cy="26.63598" r="0.5" fill="#ee854a" />
<circle cx="270.988578" cy="98.44107699999999" r="0.5" fill="#ee854a" />
<circle cx="-248.44652" cy="-3.2598153" r="0.5" fill="#8c613c" />
<circle cx="-84.645162" cy="201.94393800000003" r="0.5" fill="#d65f5f" />
<circle cx="-241.313296" cy="23.102487799999995" r="0.5" fill="#8c613c" />
<circle cx="-78.89025199999999" cy="-158.24582199999998" r="0.5" fill="#dc7ec0" />
<circle cx="210.27148800000003" cy="-111.911107" r="0.5" fill="#6acc64" />
<circle cx="106.19169400000001" cy="-120.590904" r="0.5" fill="#6acc64" />
<circle cx="168.44935800000002" cy="-152.089154" r="0.5" fill="#6acc64" />
<circle cx="280.77030099999996" cy="57.807218000000006" r="0.5" fill="#ee854a" />
<circle cx="-205.400993" cy="-26.9521091" r="0.5" fill="#8c613c" />
<circle cx="284.893518" cy="111.922594" r="0.5" fill="#ee854a" />
<circle cx="258.00095999999996" cy="79.77162200000001" r="0.5" fill="#ee854a" />
<circle cx="-117.600651" cy="140.807359" r="0.5" fill="#d65f5f" />
<circle cx="281.90736000000004" cy="51.165163" r="0.5" fill="#ee854a" />
<circle cx="291.998756" cy="67.386207" r="0.5" fill="#ee854a" />
<circle cx="4.5969812" cy="101.359069" r="0.5" fill="#956cb4" />
<circle cx="-26.515344799999998" cy="-195.385099" r="0.5" fill="#dc7ec0" />
<circle cx="-121.59898799999999" cy="86.373637" r="0.5" fill="#d65f5f" />
<circle cx="-61.013791999999995" cy="-80.70979" r="0.5" fill="#dc7ec0" />
<circle cx="-60.312552999999994" cy="-81.21864099999999" r="0.5" fill="#dc7ec0" />
<circle cx="187.52899200000002" cy="-108.984876" r="0.5" fill="#6acc64" />
<circle cx="-271.202736" cy="-52.068107" r="0.5" fill="#8c613c" />
<circle cx="-77.00917" cy="-18.1968682" r="0.5" fill="#dc7ec0" />
<circle cx="16.836722" cy="117.41212" r="0.5" fill="#956cb4" />
<circle cx="-27.267457" cy="-87.652614" r="0.5" fill="#dc7ec0" />
<circle cx="272.69302200000004" cy="89.80978999999999" r="0.5" fill="#ee854a" />
<circle cx="-79.129568" cy="-48.3226548" r="0.5" fill="#dc7ec0" />
<circle cx="-67.815958" cy="-128.40506" r="0.5" fill="#dc7ec0" />
<circle cx="-246.666476" cy="-47.7384859" r="0.5" fill="#8c613c" />
<circle cx="-17.2127018" cy="-180.265085" r="0.5" fill="#dc7ec0" />
<circle cx="29.1155529" cy="75.8884525" r="0.5" fill="#956cb4" />
<circle cx="-33.590802" cy="-160.17589" r="0.5" fill="#dc7ec0" />
<circle cx="-84.753837" cy="-130.028514" r="0.5" fill="#dc7ec0" />
<circle cx="-58.72996499999999" cy="-121.010764" r="0.5" fill="#dc7ec0" />
<circle cx="115.93221500000001" cy="-178.59648800000002" r="0.5" fill="#6acc64" />
<circle cx="-199.330719" cy="-6.523615" r="0.5" fill="#8c613c" />
<circle cx="253.00055899999998" cy="7.453908700000001" r="0.5" fill="#ee854a" />
<circle cx="-19.477255" cy="195.214523" r="0.5" fill="#d65f5f" />
<circle cx="49.8872199" cy="-42.067899999999995" r="0.5" fill="#956cb4" />
<circle cx="253.71069500000002" cy="3.43871458" r="0.5" fill="#ee854a" />
<circle cx="-246.544172" cy="3.60593198" r="0.5" fill="#8c613c" />
<circle cx="-36.648444" cy="206.25696" r="0.5" fill="#d65f5f" />
<circle cx="-138.443368" cy="104.212563" r="0.5" fill="#d65f5f" />
<circle cx="-78.714188" cy="253.143282" r="0.5" fill="#d65f5f" />
<circle cx="285.26491" cy="55.020177800000006" r="0.5" fill="#ee854a" />
<circle cx="2.6784485" cy="-31.286073000000002" r="0.5" fill="#956cb4" />
<circle cx="158.88402599999998" cy="-178.090241" r="0.5" fill="#6acc64" />
<circle cx="84.00756" cy="-198.299066" r="0.5" fill="#6acc64" />
<circle cx="221.45219600000001" cy="50.175713" r="0.5" fill="#ee854a" />
<circle cx="-204.869441" cy="-40.954004000000005" r="0.5" fill="#8c613c" />
<circle cx="7.8340367" cy="-78.470308" r="0.5" fill="#dc7ec0" />
<circle cx="259.16686599999997" cy="96.116006" r="0.5" fill="#ee854a" />
<circle cx="183.05266" cy="-84.7588" r="0.5" fill="#6acc64" />
<circle cx="292.14122" cy="82.68409799999999" r="0.5" fill="#ee854a" />
<circle cx="264.365542" cy="118.11235800000001" r="0.5" fill="#ee854a" />
<circle cx="-213.422979" cy="-34.6913945" r="8" fill="#8c613c" />
<text x="-213.422979" y="-34.6913945" font-size="8">In vivo</text>
<circle cx="-48.8743661" cy="-203.93046099999998" r="0.5" fill="#dc7ec0" />
<circle cx="18.5679669" cy="-35.578046" r="0.5" fill="#956cb4" />
<circle cx="280.889126" cy="96.62029299999999" r="0.5" fill="#ee854a" />
<circle cx="-287.645085" cy="-49.793274999999994" r="0.5" fill="#8c613c" />
<circle cx="111.313902" cy="-53.009807900000006" r="0.5" fill="#6acc64" />
<circle cx="263.81264" cy="67.401131" r="0.5" fill="#ee854a" />
<circle cx="263.80152400000003" cy="67.56970499999998" r="0.5" fill="#ee854a" />
<circle cx="251.865922" cy="58.171036" r="0.5" fill="#ee854a" />
<circle cx="-12.0532272" cy="211.22003" r="0.5" fill="#d65f5f" />
<circle cx="-74.90479500000001" cy="223.203372" r="0.5" fill="#d65f5f" />
<circle cx="149.85184199999998" cy="-63.346997" r="0.5" fill="#6acc64" />
<circle cx="297.862439" cy="17.8168634" r="0.5" fill="#ee854a" />
<circle cx="-271.844566" cy="-82.11991200000001" r="0.5" fill="#8c613c" />
<circle cx="-71.215872" cy="166.46895999999998" r="0.5" fill="#d65f5f" />
<circle cx="-212.485357" cy="31.8935939" r="0.5" fill="#8c613c" />
<circle cx="-80.20415200000001" cy="235.46775" r="0.5" fill="#d65f5f" />
<circle cx="-40.885355000000004" cy="-132.811973" r="0.5" fill="#dc7ec0" />
<circle cx="14.195807499999997" cy="50.916061" r="0.5" fill="#956cb4" />
<circle cx="-3.7718536799999995" cy="-101.37542800000001" r="0.5" fill="#dc7ec0" />
<circle cx="-51.77095" cy="72.760023" r="0.5" fill="#956cb4" />
<circle cx="-59.378809000000004" cy="96.266359" r="0.5" fill="#956cb4" />
<circle cx="2.07852512" cy="102.40152300000001" r="0.5" fill="#956cb4" />
<circle cx="282.77288200000004" cy="50.76593480000001" r="0.5" fill="#ee854a" />
<circle cx="-137.177222" cy="-125.048616" r="0.5" fill="#dc7ec0" />
<circle cx="-230.306741" cy="18.2338205" r="0.5" fill="#8c613c" />
<circle cx="253.118236" cy="45.256582" r="0.5" fill="#ee854a" />
<circle cx="-65.593962" cy="229.39502600000003" r="0.5" fill="#d65f5f" />
<circle cx="-121.44204800000001" cy="-106.731163" r="0.5" fill="#dc7ec0" />
<circle cx="62.787816" cy="176.617154" r="0.5" fill="#956cb4" />
<circle cx="3.16729189" cy="43.5490741" r="0.5" fill="#956cb4" />
<circle cx="-127.86224500000002" cy="-171.891398" r="0.5" fill="#dc7ec0" />
<circle cx="173.367012" cy="-51.8378385" r="0.5" fill="#6acc64" />
<circle cx="-94.75809699999999" cy="53.498057200000005" r="0.5" fill="#d65f5f" />
<circle cx="130.58674299999998" cy="-194.742534" r="2" fill="#6acc64" />
<text x="130.58674299999998" y="-194.742534" font-size="2">Not even wrong</text>
<circle cx="-248.993976" cy="-55.2816292" r="0.5" fill="#8c613c" />
<circle cx="-87.680474" cy="-162.854419" r="0.5" fill="#dc7ec0" />
<circle cx="272.6626" cy="44.092328" r="0.5" fill="#ee854a" />
<circle cx="203.897043" cy="48.64979700000001" r="0.5" fill="#ee854a" />
<circle cx="237.540016" cy="38.81636219999999" r="0.5" fill="#ee854a" />
<circle cx="251.87484" cy="97.88593499999999" r="0.5" fill="#ee854a" />
<circle cx="80.238298" cy="-183.061144" r="0.5" fill="#6acc64" />
<circle cx="103.81980700000001" cy="-132.15496" r="0.5" fill="#6acc64" />
<circle cx="40.96169" cy="-19.7066674" r="0.5" fill="#956cb4" />
<circle cx="263.545149" cy="90.75416000000001" r="0.5" fill="#ee854a" />
<circle cx="-167.08153000000001" cy="-79.425073" r="0.5" fill="#d65f5f" />
<circle cx="-52.311777" cy="-58.284429" r="0.5" fill="#dc7ec0" />
<circle cx="-38.1887282" cy="-168.25305" r="0.5" fill="#dc7ec0" />
<circle cx="315.57316" cy="56.312459" r="0.5" fill="#ee854a" />
<circle cx="-54.41719500000001" cy="-88.982257" r="0.5" fill="#dc7ec0" />
<circle cx="-125.09476000000001" cy="139.233185" r="0.5" fill="#d65f5f" />
<circle cx="165.288319" cy="48.61493" r="0.5" fill="#ee854a" />
<circle cx="239.85584000000003" cy="75.11835099999999" r="0.5" fill="#ee854a" />
<circle cx="-241.228001" cy="-57.421427" r="0.5" fill="#8c613c" />
<circle cx="290.008425" cy="55.435474500000005" r="0.5" fill="#ee854a" />
<circle cx="-2.6004421100000004" cy="-86.85089" r="0.5" fill="#dc7ec0" />
<circle cx="50.893563" cy="64.607263" r="0.5" fill="#956cb4" />
<circle cx="199.794987" cy="-68.711559" r="0.5" fill="#6acc64" />
<circle cx="-222.85101999999998" cy="-22.552166" r="0.5" fill="#8c613c" />
<circle cx="111.48677400000001" cy="62.04984100000001" r="0.5" fill="#956cb4" />
<circle cx="-24.966773299999996" cy="180.054987" r="0.5" fill="#d65f5f" />
<circle cx="-47.2624705" cy="183.893619" r="0.5" fill="#d65f5f" />
<circle cx="51.615396000000004" cy="190.232735" r="0.5" fill="#d65f5f" />
<circle cx="28.751809799999997" cy="165.19902" r="0.5" fill="#d65f5f" />
<circle cx="-72.25028999999999" cy="160.638191" r="0.5" fill="#d65f5f" />
<circle cx="-69.715604" cy="135.79927899999998" r="0.5" fill="#d65f5f" />
<circle cx="-17.240185900000004" cy="123.86927000000001" r="0.5" fill="#d65f5f" />
<circle cx="-49.957004999999995" cy="153.80498" r="0.5" fill="#d65f5f" />
<circle cx="-29.025185000000004" cy="129.587388" r="0.5" fill="#d65f5f" />
<circle cx="14.9156084" cy="185.953348" r="0.5" fill="#d65f5f" />
<circle cx="-68.819912" cy="-59.280683" r="0.5" fill="#dc7ec0" />
<circle cx="-17.3576669" cy="-85.602965" r="0.5" fill="#dc7ec0" />
<circle cx="-87.10994600000001" cy="-79.24123900000001" r="0.5" fill="#dc7ec0" />
<circle cx="-94.36531299999999" cy="-74.347735" r="0.5" fill="#dc7ec0" />
<circle cx="-32.154773" cy="-76.84569199999999" r="0.5" fill="#dc7ec0" />
<circle cx="169.47968799999998" cy="-63.451989999999995" r="0.5" fill="#6acc64" />
<circle cx="-193.74966799999999" cy="-70.9668645" r="0.5" fill="#8c613c" />
<circle cx="-73.855754" cy="229.646858" r="0.5" fill="#d65f5f" />
<circle cx="178.983819" cy="-110.5074425" r="0.5" fill="#6acc64" />
<circle cx="-260.202215" cy="-68.463549" r="0.5" fill="#8c613c" />
<circle cx="166.545029" cy="-53.195555" r="0.5" fill="#6acc64" />
<circle cx="-46.642995000000006" cy="-91.65265199999999" r="0.5" fill="#dc7ec0" />
<circle cx="290.71121800000003" cy="47.73209" r="0.5" fill="#ee854a" />
<circle cx="220.41575500000002" cy="109.66429600000001" r="0.5" fill="#ee854a" />
<circle cx="237.69340000000003" cy="54.1091425" r="0.5" fill="#ee854a" />
<circle cx="248.873121" cy="15.6388729" r="0.5" fill="#ee854a" />
<circle cx="-247.991975" cy="12.5232513" r="0.5" fill="#8c613c" />
<circle cx="-48.93236180000001" cy="-167.474048" r="0.5" fill="#dc7ec0" />
<circle cx="287.382011" cy="97.809887" r="0.5" fill="#ee854a" />
<circle cx="292.039608" cy="77.554337" r="0.5" fill="#ee854a" />
<circle cx="303.798355" cy="74.817498" r="0.5" fill="#ee854a" />
<circle cx="253.52026" cy="23.60302" r="0.5" fill="#ee854a" />
<circle cx="285.282844" cy="112.40497800000001" r="0.5" fill="#ee854a" />
<circle cx="283.13488" cy="86.641289" r="0.5" fill="#ee854a" />
<circle cx="143.826459" cy="-48.887062" r="0.5" fill="#6acc64" />
<circle cx="201.700534" cy="59.14181000000001" r="0.5" fill="#ee854a" />
<circle cx="283.17205" cy="74.23971800000001" r="0.5" fill="#ee854a" />
<circle cx="185.781085" cy="-60.973878" r="0.5" fill="#6acc64" />
<circle cx="-211.50869600000001" cy="-0.6447186899999999" r="0.5" fill="#8c613c" />
<circle cx="-4.52724895" cy="58.222359999999995" r="0.5" fill="#956cb4" />
<circle cx="-186.300849" cy="-49.179066999999996" r="0.5" fill="#8c613c" />
<circle cx="70.913437" cy="47.15632599999999" r="0.5" fill="#956cb4" />
<circle cx="138.857236" cy="-131.87244" r="0.5" fill="#6acc64" />
<circle cx="73.842412" cy="100.97126200000001" r="0.5" fill="#956cb4" />
<circle cx="-205.361765" cy="10.2485565" r="0.5" fill="#8c613c" />
<circle cx="-44.374512" cy="-172.17440800000003" r="0.5" fill="#dc7ec0" />
<circle cx="-244.78704600000003" cy="86.81056299999999" r="0.5" fill="#8c613c" />
<circle cx="207.318713" cy="40.5139" r="0.5" fill="#ee854a" />
<circle cx="237.36370000000002" cy="15.673331099999999" r="0.5" fill="#ee854a" />
<circle cx="98.6531" cy="19.216192799999998" r="0.5" fill="#956cb4" />
<circle cx="253.4056" cy="-12.082508899999999" r="0.5" fill="#ee854a" />
<circle cx="-34.236468" cy="258.544125" r="0.5" fill="#d65f5f" />
<circle cx="224.00161000000003" cy="50.3221299" r="0.5" fill="#ee854a" />
<circle cx="-24.882485599999995" cy="-114.96557100000001" r="0.5" fill="#dc7ec0" />
<circle cx="198.19701999999998" cy="54.3735542" r="0.5" fill="#ee854a" />
<circle cx="130.67993399999997" cy="-196.08093399999998" r="0.5" fill="#6acc64" />
<circle cx="54.800412800000004" cy="254.01963999999998" r="0.5" fill="#4878d0" />
<circle cx="61.20676099999999" cy="255.92550899999998" r="0.5" fill="#4878d0" />
<circle cx="67.749962" cy="256.52459000000005" r="0.5" fill="#4878d0" />
<circle cx="84.414603" cy="254.85074999999998" r="0.5" fill="#4878d0" />
<circle cx="76.43472200000001" cy="248.7037" r="0.5" fill="#4878d0" />
<circle cx="68.946024" cy="248.63454000000002" r="0.5" fill="#4878d0" />
<circle cx="92.145046" cy="252.92092" r="0.5" fill="#4878d0" />
<circle cx="87.68739" cy="246.0381" r="0.5" fill="#4878d0" />
<circle cx="96.973863" cy="246.685222" r="0.5" fill="#4878d0" />
<circle cx="89.070877" cy="245.416108" r="0.5" fill="#4878d0" />
<circle cx="88.430251" cy="238.91826" r="0.5" fill="#4878d0" />
<circle cx="-201.433022" cy="18.2704781" r="2" fill="#8c613c" />
<text x="-201.433022" y="18.2704781" font-size="2">Abundance of elements in Earth's crust</text>
<circle cx="46.735051999999996" cy="93.38329000000002" r="0.5" fill="#956cb4" />
<circle cx="62.69939900000001" cy="177.318288" r="0.5" fill="#956cb4" />
<circle cx="-71.257564" cy="261.447025" r="0.5" fill="#d65f5f" />
<circle cx="-178.865778" cy="6.8284619200000005" r="2" fill="#8c613c" />
<text x="-178.865778" y="6.8284619200000005" font-size="2">Glossary of chemistry terms</text>
<circle cx="-229.59332200000003" cy="73.933895" r="0.5" fill="#8c613c" />
<circle cx="-177.59102199999998" cy="13.5674427" r="0.5" fill="#8c613c" />
<circle cx="-175.503538" cy="13.671203" r="0.5" fill="#8c613c" />
<circle cx="-142.484825" cy="-84.362453" r="0.5" fill="#dc7ec0" />
<circle cx="-101.93895599999999" cy="-61.346929" r="2" fill="#dc7ec0" />
<text x="-101.93895599999999" y="-61.346929" font-size="2">Index of branches of science</text>
<circle cx="-3.46188458" cy="168.12341" r="0.5" fill="#d65f5f" />
<circle cx="-129.588494" cy="142.999311" r="0.5" fill="#d65f5f" />
<circle cx="16.4196865" cy="184.83240999999998" r="0.5" fill="#d65f5f" />
<circle cx="27.9607832" cy="163.827594" r="0.5" fill="#d65f5f" />
<circle cx="60.94088" cy="-151.50359" r="2" fill="#6acc64" />
<text x="60.94088" y="-151.50359" font-size="2">List of Ig Nobel Prize winners</text>
<circle cx="-12.5613586" cy="174.17192799999998" r="2" fill="#d65f5f" />
<text x="-12.5613586" y="174.17192799999998" font-size="2">List of Indian scientists</text>
<circle cx="-13.7558589" cy="181.65664299999997" r="0.5" fill="#d65f5f" />
<circle cx="4.0503372" cy="149.08054" r="0.5" fill="#d65f5f" />
<circle cx="-29.596434000000002" cy="138.86566399999998" r="0.5" fill="#d65f5f" />
<circle cx="13.843655000000002" cy="160.751822" r="0.5" fill="#d65f5f" />
<circle cx="-89.75302" cy="179.859939" r="0.5" fill="#d65f5f" />
<circle cx="-69.893544" cy="171.64557200000002" r="0.5" fill="#d65f5f" />
<circle cx="-12.2482549" cy="171.16668099999998" r="0.5" fill="#d65f5f" />
<circle cx="-103.278707" cy="-137.460064" r="2" fill="#dc7ec0" />
<text x="-103.278707" y="-137.460064" font-size="2">List of buzzwords</text>
<circle cx="-20.737731" cy="-51.001489" r="0.5" fill="#dc7ec0" />
<circle cx="-67.70075899999999" cy="-8.4054495" r="0.5" fill="#956cb4" />
<circle cx="-168.25771200000003" cy="14.455018899999999" r="0.5" fill="#8c613c" />
<circle cx="-77.39525499999999" cy="36.359670900000005" r="2" fill="#d65f5f" />
<text x="-77.39525499999999" y="36.359670900000005" font-size="2">List of incurable diseases</text>
<circle cx="5.561426920000001" cy="61.590088" r="0.5" fill="#956cb4" />
<circle cx="26.1294915" cy="62.49222699999999" r="0.5" fill="#956cb4" />
<circle cx="5.54629348" cy="170.28209800000002" r="0.5" fill="#d65f5f" />
<circle cx="-164.711876" cy="-79.33555" r="2" fill="#d65f5f" />
<text x="-164.711876" y="-79.33555" font-size="2">List of organisms by chromosome count</text>
<circle cx="132.947745" cy="-166.220775" r="0.5" fill="#6acc64" />
<circle cx="5.065285749999999" cy="168.528346" r="2" fill="#d65f5f" />
<text x="5.065285749999999" y="168.528346" font-size="2">List of people considered father or mother of a scientific field</text>
<circle cx="-115.491775" cy="123.71601199999999" r="0.5" fill="#d65f5f" />
<circle cx="-45.4524889" cy="240.59858900000003" r="0.5" fill="#d65f5f" />
<circle cx="97.001856" cy="50.978431" r="0.5" fill="#956cb4" />
<circle cx="-172.141375" cy="25.240208" r="0.5" fill="#8c613c" />
<circle cx="-93.03500499999998" cy="-43.2223309" r="0.5" fill="#dc7ec0" />
<circle cx="130.057179" cy="-161.28923300000002" r="8" fill="#6acc64" />
<text x="130.057179" y="-161.28923300000002" font-size="8">List of topics characterized as pseudoscience</text>
<circle cx="-288.42363900000004" cy="-48.2424628" r="0.5" fill="#8c613c" />
<circle cx="68.788104" cy="-91.453264" r="0.5" fill="#6acc64" />
<circle cx="-199.446744" cy="37.73389409999999" r="2" fill="#8c613c" />
<text x="-199.446744" y="37.73389409999999" font-size="2">List of unsolved problems in physics</text>
<circle cx="80.327653" cy="238.48476399999998" r="0.5" fill="#4878d0" />
<circle cx="68.855927" cy="-91.49474599999999" r="2" fill="#6acc64" />
<text x="68.855927" y="-91.49474599999999" font-size="2">Lists of unsolved problems</text>
<circle cx="-48.063036" cy="89.731894" r="0.5" fill="#956cb4" />
<circle cx="49.0592039" cy="94.132584" r="0.5" fill="#956cb4" />
<circle cx="-22.0970463" cy="-147.30337300000002" r="0.5" fill="#dc7ec0" />
<circle cx="67.359761" cy="78.13499399999999" r="0.5" fill="#956cb4" />
<circle cx="-131.32217" cy="138.721814" r="2" fill="#d65f5f" />
<text x="-131.32217" y="138.721814" font-size="2">Research stations in Antarctica</text>
<circle cx="-170.985619" cy="29.061519900000004" r="0.5" fill="#8c613c" />
<circle cx="14.1649305" cy="172.674166" r="2" fill="#4878d0" />
<text x="14.1649305" y="172.674166" font-size="2">Timeline of scientific discoveries</text>
<circle cx="4.728264520000001" cy="9.773383899999999" r="0.5" fill="#956cb4" />
<circle cx="125.95361799999999" cy="-151.380901" r="0.5" fill="#6acc64" />
<circle cx="-2.6210415" cy="18.461716" r="0.5" fill="#956cb4" />
<circle cx="-79.879121" cy="-77.05460699999999" r="0.5" fill="#dc7ec0" />
<circle cx="-39.36237619999999" cy="-105.484834" r="0.5" fill="#dc7ec0" />
<circle cx="-113.25561100000002" cy="78.743679" r="8" fill="#d65f5f" />
<text x="-113.25561100000002" y="78.743679" font-size="8">Astronomy</text>
<circle cx="-247.35592" cy="70.64465099999998" r="0.5" fill="#8c613c" />
<circle cx="-270.3022" cy="11.3508549" r="2" fill="#8c613c" />
<text x="-270.3022" y="11.3508549" font-size="2">Bain-marie</text>
<circle cx="242.85093" cy="87.03247" r="0.5" fill="#ee854a" />
<circle cx="28.2368415" cy="27.2984516" r="0.5" fill="#956cb4" />
<circle cx="-253.03005000000002" cy="55.2123621" r="0.5" fill="#8c613c" />
<circle cx="-272.46659999999997" cy="-18.9548779" r="2" fill="#8c613c" />
<text x="-272.46659999999997" y="-18.9548779" font-size="2">Clockwise</text>
<circle cx="-65.1423255" cy="238.755559" r="0.5" fill="#d65f5f" />
<circle cx="-63.997234" cy="99.285389" r="0.5" fill="#d65f5f" />
<circle cx="-94.529624" cy="-137.43625" r="0.5" fill="#dc7ec0" />
<circle cx="242.28358000000003" cy="89.078339" r="0.5" fill="#ee854a" />
<circle cx="-69.796874" cy="105.906045" r="0.5" fill="#d65f5f" />
<circle cx="-100.039191" cy="-128.260923" r="0.5" fill="#dc7ec0" />
<circle cx="-79.294082" cy="-24.997322" r="2" fill="#dc7ec0" />
<text x="-79.294082" y="-24.997322" font-size="2">Environmental science</text>
<circle cx="-44.192792" cy="-159.154191" r="0.5" fill="#dc7ec0" />
<circle cx="141.77667000000002" cy="-86.160354" r="0.5" fill="#6acc64" />
<circle cx="-139.529992" cy="-166.79817000000003" r="0.5" fill="#dc7ec0" />
<circle cx="136.25339000000002" cy="-169.71771600000002" r="0.5" fill="#6acc64" />
<circle cx="154.82614" cy="-91.98079100000001" r="0.5" fill="#6acc64" />
<circle cx="-83.258119" cy="-16.879503200000002" r="0.5" fill="#dc7ec0" />
<circle cx="-18.4649367" cy="155.882741" r="0.5" fill="#d65f5f" />
<circle cx="0.28085155" cy="25.714400599999998" r="0.5" fill="#956cb4" />
<circle cx="-258.237742" cy="9.717484" r="0.5" fill="#8c613c" />
<circle cx="-73.59160899999999" cy="-148.117809" r="0.5" fill="#dc7ec0" />
<circle cx="-80.824338" cy="-117.11303799999999" r="0.5" fill="#dc7ec0" />
<circle cx="-12.2719772" cy="81.815909" r="0.5" fill="#956cb4" />
<circle cx="121.464224" cy="-125.1481" r="0.5" fill="#6acc64" />
<circle cx="-80.54454799999999" cy="-142.86636" r="0.5" fill="#dc7ec0" />
<circle cx="-165.689321" cy="-16.678368000000003" r="0.5" fill="#8c613c" />
<circle cx="-267.250949" cy="-27.043604000000002" r="0.5" fill="#8c613c" />
<circle cx="29.439354" cy="38.404135000000004" r="0.5" fill="#956cb4" />
<circle cx="-29.8640944" cy="196.64029" r="0.5" fill="#d65f5f" />
<circle cx="-45.4933542" cy="107.571583" r="0.5" fill="#956cb4" />
<circle cx="-60.55100800000001" cy="-149.463832" r="0.5" fill="#dc7ec0" />
<circle cx="-25.5448389" cy="12.0117767" r="0.5" fill="#956cb4" />
<circle cx="154.53890199999998" cy="-45.362044" r="0.5" fill="#6acc64" />
<circle cx="-87.198531" cy="-157.722264" r="0.5" fill="#dc7ec0" />
<circle cx="-40.2818262" cy="-86.102667" r="0.5" fill="#dc7ec0" />
<circle cx="-74.278148" cy="220.4167" r="0.5" fill="#d65f5f" />
<circle cx="-8.0670737" cy="74.844707" r="0.5" fill="#956cb4" />
<circle cx="-236.90606099999997" cy="65.764867" r="0.5" fill="#8c613c" />
<circle cx="41.8143579" cy="16.80483" r="0.5" fill="#956cb4" />
<circle cx="-27.4984514" cy="40.88310800000001" r="0.5" fill="#956cb4" />
<circle cx="189.796971" cy="28.242902800000003" r="0.5" fill="#ee854a" />
<circle cx="-6.5329131" cy="-129.940839" r="0.5" fill="#dc7ec0" />
<circle cx="1.0168872000000002" cy="28.829556000000004" r="0.5" fill="#956cb4" />
<circle cx="2.15260416" cy="207.741016" r="0.5" fill="#d65f5f" />
<circle cx="190.13663200000002" cy="39.06994280000001" r="0.5" fill="#ee854a" />
<circle cx="220.107104" cy="109.819528" r="0.5" fill="#ee854a" />
<circle cx="254.88759800000003" cy="96.507733" r="0.5" fill="#ee854a" />
<circle cx="-49.6799219" cy="-63.113406999999995" r="0.5" fill="#dc7ec0" />
<circle cx="-301.102242" cy="-21.7672539" r="0.5" fill="#8c613c" />
<circle cx="23.619692599999997" cy="-15.3017823" r="0.5" fill="#956cb4" />
<circle cx="-242.28629600000005" cy="62.873720000000006" r="0.5" fill="#8c613c" />
<circle cx="-231.82065900000003" cy="-14.933142" r="0.5" fill="#8c613c" />
<circle cx="-10.739827" cy="-144.203059" r="0.5" fill="#dc7ec0" />
<circle cx="306.72173000000004" cy="97.16478099999999" r="0.5" fill="#ee854a" />
<circle cx="215.07563000000002" cy="110.43395999999998" r="0.5" fill="#ee854a" />
<circle cx="24.962933099999997" cy="87.32909500000001" r="0.5" fill="#956cb4" />
<circle cx="-271.789371" cy="17.173667000000002" r="0.5" fill="#8c613c" />
<circle cx="-239.84468900000002" cy="-93.172422" r="0.5" fill="#8c613c" />
<circle cx="136.825563" cy="-102.336822" r="0.5" fill="#6acc64" />
<circle cx="216.03794800000003" cy="15.295099400000002" r="2" fill="#ee854a" />
<text x="216.03794800000003" y="15.295099400000002" font-size="2">Wired (magazine)</text>
<text x="-58.36714800000001" y="163.75066399999997" font-size="30.0" fill="#d65f5f" stroke="black" stroke-width="0.4" text-anchor="middle" transform="translate(0,15.0)">NEW YORK</text>
<text x="136.25339000000002" y="-120.590904" font-size="30.0" fill="#6acc64" stroke="black" stroke-width="0.4" text-anchor="middle" transform="translate(0,15.0)">SCIENCE</text>
<text x="242.28358000000003" y="57.098419" font-size="30.0" fill="#ee854a" stroke="black" stroke-width="0.4" text-anchor="middle" transform="translate(0,15.0)">DOCUMENTARY FILM</text>
<text x="-61.54455299999999" y="-116.011357" font-size="30.0" fill="#dc7ec0" stroke="black" stroke-width="0.4" text-anchor="middle" transform="translate(0,15.0)">KNOWLEDGE</text>
<text x="31.101662899999997" y="48.3462035" font-size="30.0" fill="#956cb4" stroke="black" stroke-width="0.4" text-anchor="middle" transform="translate(0,15.0)">MINISTRY OF</text>
<text x="31.101662899999997" y="78.3462035" font-size="30.0" fill="#956cb4" stroke="black" stroke-width="0.4" text-anchor="middle" transform="translate(0,15.0)">SCIENCE AND</text>
<text x="31.101662899999997" y="108.3462035" font-size="30.0" fill="#956cb4" stroke="black" stroke-width="0.4" text-anchor="middle" transform="translate(0,15.0)">TECHNOLOGY</text>
<text x="-225.47431899999998" y="-3.67757621" font-size="30.0" fill="#8c613c" stroke="black" stroke-width="0.4" text-anchor="middle" transform="translate(0,15.0)">LABORATORY</text>
<text x="79.60552249999999" y="254.032779" font-size="30.0" fill="#4878d0" stroke="black" stroke-width="0.4" text-anchor="middle" transform="translate(0,15.0)">UNITED NATIONS</text>
</svg>