<?xml version="1.0" encoding="UTF-8"?>
<svg xmlns="http://www.w3.org/2000/svg" xmlns:xlink="http://www.w3.org/1999/xlink"
     width="3000.0" height="3000.0" viewBox="-750.0 -750.0 1500.0 1500.0">
<defs>
</defs>
<circle cx="-102.974095" cy="-25.69567" r="30" fill="#ee854a" />
<text x="-102.974095" y="-25.69567" font-size="30">Earth</text>
<circle cx="63.854294" cy="-90.910582" r="15" fill="#6acc64" />
<text x="63.854294" y="-90.910582" font-size="15">Evolution</text>
<circle cx="-97.184983" cy="-32.497439099999994" r="15" fill="#ee854a" />
<text x="-97.184983" y="-32.497439099999994" font-size="15">Galaxy</text>
<circle cx="-99.202579" cy="-27.401588200000003" r="15" fill="#ee854a" />
<text x="-99.202579" y="-27.401588200000003" font-size="15">Planet</text>
<circle cx="-143.876068" cy="125.83319700000001" r="0.5" fill="#d65f5f" />
<circle cx="37.3741935" cy="-103.780495" r="2" fill="#6acc64" />
<text x="37.3741935" y="-103.780495" font-size="2">Astrology and science</text>
<circle cx="112.65589999999999" cy="-197.097572" r="15" fill="#4878d0" />
<text x="112.65589999999999" y="-197.097572" font-size="15">Bill Nye</text>
<circle cx="-29.66292" cy="-19.543118" r="15" fill="#8c613c" />
<text x="-29.66292" y="-19.543118" font-size="15">Biology</text>
<circle cx="69.50110299999999" cy="-53.7052215" r="2" fill="#6acc64" />
<text x="69.50110299999999" y="-53.7052215" font-size="2">Philosophy of science</text>
<circle cx="4.27905485" cy="-101.01728700000001" r="0.5" fill="#6acc64" />
<circle cx="23.22278" cy="-14.420966000000002" r="15" fill="#956cb4" />
<text x="23.22278" y="-14.420966000000002" font-size="15">Sociology</text>
<circle cx="185.972416" cy="-146.400296" r="0.5" fill="#4878d0" />
<circle cx="86.923487" cy="143.108469" r="15" fill="#d65f5f" />
<text x="86.923487" y="143.108469" font-size="15">Taxonomy (biology)</text>
<circle cx="-164.673425" cy="136.317125" r="0.5" fill="#d65f5f" />
<circle cx="-159.830055" cy="-13.8204423" r="0.5" fill="#d65f5f" />
<circle cx="-134.54506800000001" cy="-0.207310502" r="2" fill="#4878d0" />
<text x="-134.54506800000001" y="-0.207310502" font-size="2">Amundsen–Scott South Pole Station</text>
<circle cx="-47.815012" cy="-35.023667" r="0.5" fill="#8c613c" />
<circle cx="-25.385150000000003" cy="-18.821427099999998" r="8" fill="#8c613c" />
<text x="-25.385150000000003" y="-18.821427099999998" font-size="8">Branches of science</text>
<circle cx="-136.464902" cy="-99.53132000000001" r="0.5" fill="#dc7ec0" />
<circle cx="-137.00348200000002" cy="-95.489618" r="2" fill="#dc7ec0" />
<text x="-137.00348200000002" y="-95.489618" font-size="2">Chemical substance</text>
<circle cx="-52.9435781" cy="229.08244100000002" r="0.5" fill="#8c613c" />
<circle cx="-125.272028" cy="115.590629" r="0.5" fill="#d65f5f" />
<circle cx="18.3301272" cy="140.90335" r="0.5" fill="#956cb4" />
<circle cx="130.486321" cy="-145.07392199999998" r="0.5" fill="#4878d0" />
<circle cx="208.48583699999998" cy="174.588043" r="2" fill="#d65f5f" />
<text x="208.48583699999998" y="174.588043" font-size="2">David Suzuki</text>
<circle cx="70.80102400000001" cy="-49.16898280000001" r="8" fill="#6acc64" />
<text x="70.80102400000001" y="-49.16898280000001" font-size="8">Determinism</text>
<circle cx="-105.34262199999999" cy="-133.419447" r="0.5" fill="#dc7ec0" />
<circle cx="-57.927163" cy="-15.709974" r="15" fill="#8c613c" />
<text x="-57.927163" y="-15.709974" font-size="15">Engineering</text>
<circle cx="11.8714477" cy="-77.532637" r="0.5" fill="#6acc64" />
<circle cx="173.603241" cy="-104.34050549999999" r="15" fill="#4878d0" />
<text x="173.603241" y="-104.34050549999999" font-size="15">Gravity</text>
<circle cx="12.1286165" cy="-11.8516237" r="8" fill="#956cb4" />
<text x="12.1286165" y="-11.8516237" font-size="8">Humanities</text>
<circle cx="116.984469" cy="-101.87270799999999" r="2" fill="#6acc64" />
<text x="116.984469" y="-101.87270799999999" font-size="2">Jared Diamond</text>
<circle cx="113.350139" cy="-161.537544" r="0.5" fill="#4878d0" />
<circle cx="119.456897" cy="-76.42913250000001" r="0.5" fill="#d65f5f" />
<circle cx="-251.59365" cy="49.082004999999995" r="0.5" fill="#8c613c" />
<circle cx="59.209444" cy="-94.019926" r="8" fill="#6acc64" />
<text x="59.209444" y="-94.019926" font-size="8">Life</text>
<circle cx="-104.044339" cy="126.27145999999999" r="0.5" fill="#d65f5f" />
<circle cx="79.856063" cy="-104.430648" r="8" fill="#8c613c" />
<text x="79.856063" y="-104.430648" font-size="8">Muslim world</text>
<circle cx="-168.46695599999998" cy="23.042576900000004" r="0.5" fill="#8c613c" />
<circle cx="41.270242999999994" cy="-15.6155657" r="8" fill="#6acc64" />
<text x="41.270242999999994" y="-15.6155657" font-size="8">Neuroscience</text>
<circle cx="157.094476" cy="-199.31618000000003" r="0.5" fill="#4878d0" />
<circle cx="-5.53172872" cy="71.73735099999999" r="0.5" fill="#956cb4" />
<circle cx="32.467673" cy="-110.211934" r="8" fill="#6acc64" />
<text x="32.467673" y="-110.211934" font-size="8">Pseudoscience</text>
<circle cx="86.40027200000002" cy="-114.23539400000001" r="2" fill="#6acc64" />
<text x="86.40027200000002" y="-114.23539400000001" font-size="2">Relationship between religion and science</text>
<circle cx="31.193794800000006" cy="31.8943345" r="8" fill="#956cb4" />
<text x="31.193794800000006" y="31.8943345" font-size="8">Research</text>
<circle cx="175.62923700000002" cy="-79.129652" r="0.5" fill="#dc7ec0" />
<circle cx="-14.1303834" cy="-20.6501806" r="15" fill="#8c613c" />
<text x="-14.1303834" y="-20.6501806" font-size="15">Science</text>
<circle cx="-40.886506499999996" cy="201.635119" r="0.5" fill="#d65f5f" />
<circle cx="-201.15504499999997" cy="54.117143500000005" r="0.5" fill="#8c613c" />
<circle cx="-219.974846" cy="68.29494" r="0.5" fill="#8c613c" />
<circle cx="-250.61610000000002" cy="66.64809199999999" r="0.5" fill="#8c613c" />
<circle cx="59.43825299999999" cy="-59.12354700000001" r="15" fill="#6acc64" />
<text x="59.43825299999999" y="-59.12354700000001" font-size="15">Scientific method</text>
<circle cx="18.5187051" cy="-75.56465" r="0.5" fill="#6acc64" />
<circle cx="112.094178" cy="39.223723" r="15" fill="#dc7ec0" />
<text x="112.094178" y="39.223723" font-size="15">Standard deviation</text>
<circle cx="-115.41432" cy="186.844651" r="8" fill="#d65f5f" />
<text x="-115.41432" y="186.844651" font-size="8">TED (conference)</text>
<circle cx="64.595622" cy="-218.99341099999998" r="0.5" fill="#4878d0" />
<circle cx="203.76570199999998" cy="23.660262499999998" r="0.5" fill="#d65f5f" />
<circle cx="89.383602" cy="-117.40506399999998" r="0.5" fill="#6acc64" />
<circle cx="112.15808099999998" cy="-158.651976" r="0.5" fill="#4878d0" />
<circle cx="58.01754" cy="-136.73083200000002" r="8" fill="#6acc64" />
<text x="58.01754" y="-136.73083200000002" font-size="8">Afterlife</text>
<circle cx="-106.04797" cy="115.62073600000002" r="0.5" fill="#d65f5f" />
<circle cx="-60.27902999999999" cy="181.121304" r="0.5" fill="#d65f5f" />
<circle cx="28.1346492" cy="-86.64303199999999" r="2" fill="#6acc64" />
<text x="28.1346492" y="-86.64303199999999" font-size="2">Anecdotal evidence</text>
<circle cx="141.68028" cy="-65.053681" r="8" fill="#6acc64" />
<text x="141.68028" y="-65.053681" font-size="8">Anthropomorphism</text>
<circle cx="184.31030800000002" cy="-50.301370000000006" r="0.5" fill="#dc7ec0" />
<circle cx="-125.871802" cy="-52.832535" r="0.5" fill="#dc7ec0" />
<circle cx="100.71257" cy="-74.915764" r="0.5" fill="#6acc64" />
<circle cx="-33.2199525" cy="109.266171" r="0.5" fill="#4878d0" />
<circle cx="156.772896" cy="-142.339253" r="0.5" fill="#4878d0" />
<circle cx="-19.186934200000003" cy="132.274429" r="0.5" fill="#956cb4" />
<circle cx="54.55772" cy="156.205882" r="0.5" fill="#dc7ec0" />
<circle cx="49.6901496" cy="-186.084486" r="0.5" fill="#4878d0" />
<circle cx="20.9005104" cy="-115.124226" r="0.5" fill="#6acc64" />
<circle cx="-73.57212100000001" cy="-119.52465000000001" r="2" fill="#dc7ec0" />
<text x="-73.57212100000001" y="-119.52465000000001" font-size="2">Bunsen burner</text>
<circle cx="2.9825257" cy="157.306457" r="0.5" fill="#dc7ec0" />
<circle cx="-145.288241" cy="89.319139" r="0.5" fill="#d65f5f" />
<circle cx="-178.57145599999998" cy="-118.673555" r="0.5" fill="#d65f5f" />
<circle cx="-53.347469000000004" cy="41.678707" r="2" fill="#d65f5f" />
<text x="-53.347469000000004" y="41.678707" font-size="2">Citizen science</text>
<circle cx="48.5453269" cy="-18.337412099999998" r="2" fill="#6acc64" />
<text x="48.5453269" y="-18.337412099999998" font-size="2">Cognitive science</text>
<circle cx="84.816193" cy="144.463305" r="2" fill="#dc7ec0" />
<text x="84.816193" y="144.463305" font-size="2">Common name</text>
<circle cx="-76.504911" cy="-92.12247800000002" r="0.5" fill="#dc7ec0" />
<circle cx="-114.51239100000001" cy="-130.640174" r="0.5" fill="#dc7ec0" />
<circle cx="88.027814" cy="96.498164" r="8" fill="#956cb4" />
<text x="88.027814" y="96.498164" font-size="8">Computer data storage</text>
<circle cx="50.55931790000001" cy="-44.7996171" r="0.5" fill="#6acc64" />
<circle cx="-106.27708700000001" cy="70.334257" r="0.5" fill="#d65f5f" />
<circle cx="-162.1305" cy="44.8060991" r="0.5" fill="#8c613c" />
<circle cx="68.80213549999999" cy="-58.904090000000004" r="0.5" fill="#6acc64" />
<circle cx="-120.215851" cy="-209.29420399999998" r="2" fill="#dc7ec0" />
<text x="-120.215851" y="-209.29420399999998" font-size="2">Defecation</text>
<circle cx="26.854141300000002" cy="-97.43544299999999" r="0.5" fill="#6acc64" />
<circle cx="98.07105" cy="48.284973799999996" r="2" fill="#956cb4" />
<text x="98.07105" y="48.284973799999996" font-size="2">Design of experiments</text>
<circle cx="17.7815652" cy="56.135226" r="2" fill="#956cb4" />
<text x="17.7815652" y="56.135226" font-size="2">Digital humanities</text>
<circle cx="-81.1753425" cy="144.749934" r="2" fill="#d65f5f" />
<text x="-81.1753425" y="144.749934" font-size="2">Doctor of Science</text>
<circle cx="-81.25770800000001" cy="-7.8389038" r="2" fill="#8c613c" />
<text x="-81.25770800000001" y="-7.8389038" font-size="2">Earth science</text>
<circle cx="45.6338918" cy="-175.330421" r="0.5" fill="#6acc64" />
<circle cx="-143.1997" cy="-151.50443" r="2" fill="#dc7ec0" />
<text x="-143.1997" y="-151.50443" font-size="2">Electromagnetic shielding</text>
<circle cx="65.44234900000001" cy="-3.5330575000000004" r="0.5" fill="#6acc64" />
<circle cx="49.406062999999996" cy="34.347229" r="2" fill="#956cb4" />
<text x="49.406062999999996" y="34.347229" font-size="2">Evaluation</text>
<circle cx="80.044566" cy="-4.7746457499999995" r="0.5" fill="#956cb4" />
<circle cx="34.902497" cy="2.1778456000000004" r="2" fill="#956cb4" />
<text x="34.902497" y="2.1778456000000004" font-size="2">Experiment</text>
<circle cx="-43.017345" cy="-51.9406482" r="8" fill="#956cb4" />
<text x="-43.017345" y="-51.9406482" font-size="8">Forensic science</text>
<circle cx="-36.3326971" cy="133.28217" r="0.5" fill="#d65f5f" />
<circle cx="-85.774661" cy="-9.3365636" r="2" fill="#8c613c" />
<text x="-85.774661" y="-9.3365636" font-size="2">Geophysics</text>
<circle cx="-33.145588" cy="-8.7046337" r="2" fill="#8c613c" />
<text x="-33.145588" y="-8.7046337" font-size="2">Glossary of biology</text>
<circle cx="-0.71974196" cy="80.361085" r="8" fill="#956cb4" />
<text x="-0.71974196" y="80.361085" font-size="8">Google Scholar</text>
<circle cx="68.18853650000001" cy="23.732105600000004" r="2" fill="#956cb4" />
<text x="68.18853650000001" y="23.732105600000004" font-size="2">Grounded theory</text>
<circle cx="-129.493112" cy="-7.485788799999999" r="2" fill="#dc7ec0" />
<text x="-129.493112" y="-7.485788799999999" font-size="2">Highest temperature recorded on Earth</text>
<circle cx="-120.010065" cy="-208.51691" r="2" fill="#dc7ec0" />
<text x="-120.010065" y="-208.51691" font-size="2">Human feces</text>
<circle cx="85.287531" cy="169.388534" r="0.5" fill="#dc7ec0" />
<circle cx="-44.131440500000004" cy="-103.5256005" r="0.5" fill="#dc7ec0" />
<circle cx="80.683855" cy="32.5335185" r="2" fill="#956cb4" />
<text x="80.683855" y="32.5335185" font-size="2">Internal validity</text>
<circle cx="116.100999" cy="78.473094" r="8" fill="#dc7ec0" />
<text x="116.100999" y="78.473094" font-size="8">International Organization for Standardization</text>
<circle cx="100.436056" cy="-117.20548" r="0.5" fill="#6acc64" />
<circle cx="0.9104635400000001" cy="232.645882" r="0.5" fill="#d65f5f" />
<circle cx="25.4102513" cy="-102.8411055" r="0.5" fill="#6acc64" />
<circle cx="64.669836" cy="93.73762300000001" r="0.5" fill="#956cb4" />
<circle cx="-62.503833" cy="-73.6629075" r="2" fill="#8c613c" />
<text x="-62.503833" y="-73.6629075" font-size="2">Laboratory</text>
<circle cx="57.293558000000004" cy="194.580344" r="0.5" fill="#d65f5f" />
<circle cx="56.058386999999996" cy="195.02520099999998" r="2" fill="#d65f5f" />
<text x="56.058386999999996" y="195.02520099999998" font-size="2">Laboratory rat</text>
<circle cx="-91.26174400000001" cy="102.894036" r="2" fill="#d65f5f" />
<text x="-91.26174400000001" y="102.894036" font-size="2">Leana Wen</text>
<circle cx="8.305563" cy="-13.3824215" r="2" fill="#d65f5f" />
<text x="8.305563" y="-13.3824215" font-size="2">Liberal arts education</text>
<circle cx="-105.98357699999998" cy="142.422595" r="0.5" fill="#d65f5f" />
<circle cx="70.98727299999999" cy="-92.648934" r="0.5" fill="#6acc64" />
<circle cx="-95.13275099999998" cy="156.354884" r="0.5" fill="#d65f5f" />
<circle cx="108.79897000000001" cy="-106.498987" r="0.5" fill="#6acc64" />
<circle cx="-74.890935" cy="104.605305" r="0.5" fill="#d65f5f" />
<circle cx="-86.743111" cy="-96.28639299999999" r="2" fill="#dc7ec0" />
<text x="-86.743111" y="-96.28639299999999" font-size="2">Microtome</text>
<circle cx="-56.84298900000001" cy="-3.31548602" r="0.5" fill="#8c613c" />
<circle cx="-101.605021" cy="99.528541" r="0.5" fill="#d65f5f" />
<circle cx="-101.217963" cy="81.869221" r="2" fill="#d65f5f" />
<text x="-101.217963" y="81.869221" font-size="2">National Science Foundation</text>
<circle cx="-18.4255505" cy="-20.1423068" r="8" fill="#8c613c" />
<text x="-18.4255505" y="-20.1423068" font-size="8">Natural science</text>
<circle cx="100.177707" cy="-126.689465" r="0.5" fill="#6acc64" />
<circle cx="-103.51725300000001" cy="64.916054" r="0.5" fill="#d65f5f" />
<circle cx="193.508245" cy="156.631048" r="0.5" fill="#d65f5f" />
<circle cx="-100.21885999999999" cy="-114.58573" r="0.5" fill="#dc7ec0" />
<circle cx="230.24533" cy="-221.247684" r="0.5" fill="#4878d0" />
<circle cx="84.8541785" cy="63.994420000000005" r="0.5" fill="#956cb4" />
<circle cx="-24.7155258" cy="-23.944540200000002" r="0.5" fill="#8c613c" />
<circle cx="-148.37219599999997" cy="96.88684599999999" r="0.5" fill="#8c613c" />
<circle cx="32.379599" cy="153.479599" r="0.5" fill="#dc7ec0" />
<circle cx="-69.808151" cy="81.702264" r="0.5" fill="#d65f5f" />
<circle cx="-102.849222" cy="38.716145999999995" r="0.5" fill="#d65f5f" />
<circle cx="48.66694" cy="-74.817988" r="2" fill="#6acc64" />
<text x="48.66694" y="-74.817988" font-size="2">Phenomenon</text>
<circle cx="-37.865349200000004" cy="-20.5753576" r="15" fill="#8c613c" />
<text x="-37.865349200000004" y="-20.5753576" font-size="15">Physics</text>
<circle cx="19.4377512" cy="-18.2935459" r="8" fill="#956cb4" />
<text x="19.4377512" y="-18.2935459" font-size="8">Political science</text>
<circle cx="-126.50857099999999" cy="-133.525777" r="0.5" fill="#dc7ec0" />
<circle cx="13.106042600000002" cy="-59.760036" r="0.5" fill="#6acc64" />
<circle cx="-97.095502" cy="-148.05819" r="0.5" fill="#dc7ec0" />
<circle cx="-59.246663" cy="-131.66337099999998" r="0.5" fill="#dc7ec0" />
<circle cx="5.21532711" cy="-62.11030699999999" r="2" fill="#6acc64" />
<text x="5.21532711" y="-62.11030699999999" font-size="2">Replication crisis</text>
<circle cx="16.835664299999998" cy="-54.0322811" r="0.5" fill="#956cb4" />
<circle cx="99.8698225" cy="30.996704199999996" r="2" fill="#956cb4" />
<text x="99.8698225" y="30.996704199999996" font-size="2">Reproducibility</text>
<circle cx="94.422902" cy="89.27975" r="0.5" fill="#956cb4" />
<circle cx="66.763592" cy="40.0072841" r="8" fill="#956cb4" />
<text x="66.763592" y="40.0072841" font-size="8">Research design</text>
<circle cx="99.76613499999999" cy="58.050258" r="2" fill="#956cb4" />
<text x="99.76613499999999" y="58.050258" font-size="2">Root cause analysis</text>
<circle cx="-140.314643" cy="-50.9650386" r="0.5" fill="#dc7ec0" />
<circle cx="-59.54118100000001" cy="-166.765242" r="0.5" fill="#dc7ec0" />
<circle cx="-13.215768299999999" cy="78.230229" r="15" fill="#956cb4" />
<text x="-13.215768299999999" y="78.230229" font-size="15">Sci-Hub</text>
<circle cx="-122.505754" cy="138.143978" r="8" fill="#d65f5f" />
<text x="-122.505754" y="138.143978" font-size="8">Science, technology, engineering, and mathematics</text>
<circle cx="163.52520099999998" cy="134.111964" r="0.5" fill="#ee854a" />
<circle cx="-227.66737" cy="56.358746499999995" r="0.5" fill="#8c613c" />
<circle cx="-220.767106" cy="99.50054800000001" r="0.5" fill="#8c613c" />
<circle cx="205.65232799999998" cy="43.0996811" r="0.5" fill="#8c613c" />
<circle cx="-198.24609" cy="24.911849900000004" r="2" fill="#8c613c" />
<text x="-198.24609" y="24.911849900000004" font-size="2">Science and technology in the Philippines</text>
<circle cx="-201.230239" cy="96.07168899999999" r="0.5" fill="#8c613c" />
<circle cx="-7.582987999999999" cy="-23.9590883" r="2" fill="#8c613c" />
<text x="-7.582987999999999" y="-23.9590883" font-size="2">Science education</text>
<circle cx="-105.331044" cy="171.709776" r="2" fill="#6acc64" />
<text x="-105.331044" y="171.709776" font-size="2">Scientific American</text>
<circle cx="54.4527151" cy="-64.592542" r="2" fill="#6acc64" />
<text x="54.4527151" y="-64.592542" font-size="2">Scientific law</text>
<circle cx="-1.3647892999999998" cy="-32.296380199999994" r="0.5" fill="#6acc64" />
<circle cx="23.2677088" cy="8.5922186" r="0.5" fill="#956cb4" />
<circle cx="57.668758" cy="-65.6275235" r="2" fill="#6acc64" />
<text x="57.668758" y="-65.6275235" font-size="2">Scientific theory</text>
<circle cx="-40.6333368" cy="-27.159840400000004" r="8" fill="#8c613c" />
<text x="-40.6333368" y="-27.159840400000004" font-size="8">Scientist</text>
<circle cx="2.6589823399999997" cy="97.84866" r="0.5" fill="#956cb4" />
<circle cx="154.84168" cy="145.45687800000002" r="0.5" fill="#d65f5f" />
<circle cx="-110.374474" cy="-87.393852" r="0.5" fill="#dc7ec0" />
<circle cx="128.33842" cy="-21.4997979" r="0.5" fill="#6acc64" />
<circle cx="-53.0302822" cy="229.575185" r="0.5" fill="#8c613c" />
<circle cx="87.368617" cy="-30.769686500000002" r="0.5" fill="#d65f5f" />
<circle cx="175.968632" cy="-77.982548" r="2" fill="#dc7ec0" />
<text x="175.968632" y="-77.982548" font-size="2">Simple machine</text>
<circle cx="19.0046976" cy="-12.2116253" r="15" fill="#956cb4" />
<text x="19.0046976" y="-12.2116253" font-size="15">Social science</text>
<circle cx="73.13982899999999" cy="-25.8707554" r="0.5" fill="#6acc64" />
<circle cx="-151.85331" cy="-40.263783" r="2" fill="#ee854a" />
<text x="-151.85331" y="-40.263783" font-size="2">Spaceflight</text>
<circle cx="31.216154900000003" cy="152.81504" r="0.5" fill="#956cb4" />
<circle cx="8.227774100000001" cy="-74.089778" r="0.5" fill="#956cb4" />
<circle cx="131.889317" cy="-35.9880899" r="0.5" fill="#6acc64" />
<circle cx="197.43852100000004" cy="182.890967" r="0.5" fill="#8c613c" />
<circle cx="198.81501500000002" cy="183.710695" r="0.5" fill="#8c613c" />
<circle cx="61.538253" cy="131.795328" r="0.5" fill="#6acc64" />
<circle cx="-237.17736000000002" cy="130.63029" r="0.5" fill="#d65f5f" />
<circle cx="138.41069900000002" cy="-104.145342" r="0.5" fill="#d65f5f" />
<circle cx="158.70558200000002" cy="10.6385832" r="0.5" fill="#956cb4" />
<circle cx="102.50527000000001" cy="-47.437187" r="0.5" fill="#6acc64" />
<circle cx="60.343913" cy="-48.44377999999999" r="2" fill="#956cb4" />
<text x="60.343913" y="-48.44377999999999" font-size="2">Theory</text>
<circle cx="52.325182" cy="105.865984" r="0.5" fill="#956cb4" />
<circle cx="-113.91548" cy="-143.342332" r="8" fill="#dc7ec0" />
<text x="-113.91548" y="-143.342332" font-size="8">Vacuum</text>
<circle cx="15.148949900000003" cy="80.171217" r="2" fill="#956cb4" />
<text x="15.148949900000003" y="80.171217" font-size="2">Vancouver system</text>
<circle cx="-183.02113200000002" cy="2.2114281" r="0.5" fill="#d65f5f" />
<circle cx="-55.667283000000005" cy="-128.93686399999999" r="0.5" fill="#dc7ec0" />
<circle cx="-178.879848" cy="188.955396" r="0.5" fill="#d65f5f" />
<circle cx="-151.470452" cy="91.92589000000001" r="0.5" fill="#d65f5f" />
<circle cx="175.322" cy="219.91130700000002" r="0.5" fill="#ee854a" />
<circle cx="161.41429499999998" cy="240.2351" r="0.5" fill="#ee854a" />
<circle cx="153.228635" cy="239.65432399999997" r="0.5" fill="#ee854a" />
<circle cx="134.625981" cy="233.132732" r="0.5" fill="#ee854a" />
<circle cx="-177.891336" cy="-152.038712" r="0.5" fill="#8c613c" />
<circle cx="146.746271" cy="-176.78252199999997" r="0.5" fill="#4878d0" />
<circle cx="198.569525" cy="-144.843489" r="0.5" fill="#4878d0" />
<circle cx="-101.769374" cy="235.10212600000003" r="0.5" fill="#d65f5f" />
<circle cx="67.195212" cy="-11.52928" r="0.5" fill="#6acc64" />
<circle cx="-103.83304400000002" cy="-138.08225199999998" r="0.5" fill="#dc7ec0" />
<circle cx="87.152597" cy="62.395326" r="0.5" fill="#956cb4" />
<circle cx="2.22094768" cy="-189.02482200000003" r="0.5" fill="#6acc64" />
<circle cx="-146.08519800000002" cy="-42.417592" r="0.5" fill="#ee854a" />
<circle cx="119.16933" cy="-98.96369000000001" r="0.5" fill="#6acc64" />
<circle cx="-98.653471" cy="231.317149" r="0.5" fill="#d65f5f" />
<circle cx="-99.45432699999998" cy="98.78976449999999" r="0.5" fill="#d65f5f" />
<circle cx="86.677535" cy="-125.934417" r="0.5" fill="#6acc64" />
<circle cx="-81.41259" cy="-108.49954500000001" r="0.5" fill="#dc7ec0" />
<circle cx="-88.60839399999999" cy="165.059055" r="0.5" fill="#d65f5f" />
<circle cx="139.60671900000003" cy="118.97046" r="0.5" fill="#d65f5f" />
<circle cx="-52.9250701" cy="-14.588159600000001" r="2" fill="#8c613c" />
<text x="-52.9250701" y="-14.588159600000001" font-size="2">Applied science</text>
<circle cx="61.206187" cy="49.5727302" r="0.5" fill="#956cb4" />
<circle cx="145.38706" cy="34.7910535" r="0.5" fill="#dc7ec0" />
<circle cx="118.20909800000001" cy="27.3775208" r="0.5" fill="#956cb4" />
<circle cx="19.815992" cy="136.079286" r="0.5" fill="#956cb4" />
<circle cx="-108.28769" cy="-153.19501400000001" r="0.5" fill="#dc7ec0" />
<circle cx="-140.89215" cy="127.20635899999999" r="0.5" fill="#d65f5f" />
<circle cx="-78.14624300000001" cy="118.58701399999998" r="0.5" fill="#d65f5f" />
<circle cx="35.7866635" cy="-9.7973645" r="2" fill="#956cb4" />
<text x="35.7866635" y="-9.7973645" font-size="2">Behavioural sciences</text>
<circle cx="104.198283" cy="-79.576441" r="0.5" fill="#6acc64" />
<circle cx="13.180153" cy="-106.30214699999999" r="2" fill="#6acc64" />
<text x="13.180153" y="-106.30214699999999" font-size="2">Big Pharma conspiracy theory</text>
<circle cx="-88.094328" cy="113.00082499999999" r="0.5" fill="#d65f5f" />
<circle cx="-20.014133299999997" cy="39.4884371" r="0.5" fill="#956cb4" />
<circle cx="91.58512999999999" cy="-39.9237111" r="0.5" fill="#6acc64" />
<circle cx="62.46616949999999" cy="-69.39978500000001" r="0.5" fill="#6acc64" />
<circle cx="-14.4505991" cy="12.771355100000001" r="0.5" fill="#6acc64" />
<circle cx="-84.140399" cy="21.282821" r="2" fill="#dc7ec0" />
<text x="-84.140399" y="21.282821" font-size="2">Carbon footprint</text>
<circle cx="32.5543736" cy="-166.902764" r="0.5" fill="#6acc64" />
<circle cx="69.955291" cy="35.2485805" r="0.5" fill="#956cb4" />
<circle cx="-131.974955" cy="-88.233922" r="0.5" fill="#dc7ec0" />
<circle cx="-109.456858" cy="-97.95932300000001" r="0.5" fill="#dc7ec0" />
<circle cx="-29.16991" cy="199.592113" r="0.5" fill="#d65f5f" />
<circle cx="-98.71619100000001" cy="-145.681557" r="0.5" fill="#dc7ec0" />
<circle cx="87.567487" cy="-125.51279299999999" r="0.5" fill="#6acc64" />
<circle cx="17.893073100000002" cy="79.068129" r="2" fill="#956cb4" />
<text x="17.893073100000002" y="79.068129" font-size="2">Citation</text>
<circle cx="-7.650915999999999" cy="88.142005" r="0.5" fill="#956cb4" />
<circle cx="35.636916" cy="-180.748344" r="2" fill="#6acc64" />
<text x="35.636916" y="-180.748344" font-size="2">Clarke's three laws</text>
<circle cx="-54.1721481" cy="-128.188634" r="0.5" fill="#dc7ec0" />
<circle cx="-68.589899" cy="-57.43595899999999" r="0.5" fill="#dc7ec0" />
<circle cx="-207.243624" cy="-63.090937" r="0.5" fill="#4878d0" />
<circle cx="-9.573098499999999" cy="27.8014688" r="0.5" fill="#d65f5f" />
<circle cx="131.330108" cy="-142.37140399999998" r="0.5" fill="#4878d0" />
<circle cx="15.613970400000003" cy="-22.4452851" r="2" fill="#956cb4" />
<text x="15.613970400000003" y="-22.4452851" font-size="2">Communication studies</text>
<circle cx="69.393975" cy="58.900891" r="0.5" fill="#956cb4" />
<circle cx="-61.252443" cy="-10.5943306" r="0.5" fill="#8c613c" />
<circle cx="-104.036933" cy="-172.92227400000002" r="0.5" fill="#dc7ec0" />
<circle cx="57.21338" cy="-137.54787199999998" r="2" fill="#6acc64" />
<text x="57.21338" y="-137.54787199999998" font-size="2">Consciousness after death</text>
<circle cx="106.790817" cy="42.6914341" r="2" fill="#956cb4" />
<text x="106.790817" y="42.6914341" font-size="2">Control variable</text>
<circle cx="-200.41842100000002" cy="-69.207005" r="0.5" fill="#4878d0" />
<circle cx="-76.345801" cy="-143.784676" r="0.5" fill="#dc7ec0" />
<circle cx="189.71087100000003" cy="124.78363099999999" r="0.5" fill="#d65f5f" />
<circle cx="72.13164" cy="-118.786472" r="0.5" fill="#6acc64" />
<circle cx="-99.78024" cy="-110.650204" r="0.5" fill="#dc7ec0" />
<circle cx="-9.3891644" cy="-105.879473" r="0.5" fill="#d65f5f" />
<circle cx="89.265946" cy="89.41146549999999" r="0.5" fill="#956cb4" />
<circle cx="81.687473" cy="-31.768480800000003" r="0.5" fill="#6acc64" />
<circle cx="27.9655264" cy="115.735851" r="0.5" fill="#d65f5f" />
<circle cx="-93.742012" cy="73.41299" r="0.5" fill="#d65f5f" />
<circle cx="61.601743000000006" cy="76.65105" r="0.5" fill="#956cb4" />
<circle cx="-163.15877899999998" cy="164.090752" r="0.5" fill="#d65f5f" />
<circle cx="43.073132199999996" cy="-41.717536" r="0.5" fill="#6acc64" />
<circle cx="201.683104" cy="-143.387979" r="0.5" fill="#4878d0" />
<circle cx="-196.90560399999998" cy="23.956104200000002" r="0.5" fill="#8c613c" />
<circle cx="112.63861" cy="-194.732349" r="2" fill="#4878d0" />
<text x="112.63861" y="-194.732349" font-size="2">Derek Muller</text>
<circle cx="123.858735" cy="-125.02964599999999" r="0.5" fill="#6acc64" />
<circle cx="17.743382999999998" cy="34.003144" r="0.5" fill="#956cb4" />
<circle cx="7.9261728" cy="14.255441200000002" r="0.5" fill="#956cb4" />
<circle cx="-154.042364" cy="-155.020117" r="0.5" fill="#dc7ec0" />
<circle cx="-24.320982" cy="-77.121114" r="0.5" fill="#956cb4" />
<circle cx="116.765572" cy="-191.67021999999997" r="0.5" fill="#4878d0" />
<circle cx="-76.143592" cy="4.665451" r="0.5" fill="#8c613c" />
<circle cx="67.121341" cy="5.8163181999999995" r="0.5" fill="#956cb4" />
<circle cx="-36.838886" cy="65.389212" r="0.5" fill="#956cb4" />
<circle cx="-139.586055" cy="74.00599500000001" r="0.5" fill="#8c613c" />
<circle cx="165.117561" cy="-142.79201999999998" r="8" fill="#ee854a" />
<text x="165.117561" y="-142.79201999999998" font-size="8">Event Horizon Telescope</text>
<circle cx="32.4315831" cy="-34.451634000000006" r="2" fill="#956cb4" />
<text x="32.4315831" y="-34.451634000000006" font-size="2">Evidence</text>
<circle cx="74.68463799999999" cy="73.953327" r="0.5" fill="#956cb4" />
<circle cx="42.131193999999994" cy="71.4964495" r="0.5" fill="#956cb4" />
<circle cx="65.044049" cy="35.7297794" r="2" fill="#956cb4" />
<text x="65.044049" y="35.7297794" font-size="2">Exploratory research</text>
<circle cx="-47.552876" cy="133.451346" r="0.5" fill="#d65f5f" />
<circle cx="-9.6297474" cy="-67.454415" r="0.5" fill="#956cb4" />
<circle cx="22.4982639" cy="-70.6636" r="0.5" fill="#956cb4" />
<circle cx="-2.63772978" cy="141.041656" r="0.5" fill="#956cb4" />
<circle cx="51.3950045" cy="-141.847251" r="8" fill="#6acc64" />
<text x="51.3950045" y="-141.847251" font-size="8">Fasting</text>
<circle cx="-100.30819400000001" cy="-63.268268000000006" r="0.5" fill="#956cb4" />
<circle cx="60.188191" cy="5.84795218" r="0.5" fill="#956cb4" />
<circle cx="17.103500399999998" cy="112.98004900000001" r="0.5" fill="#6acc64" />
<circle cx="72.095807" cy="44.9203405" r="0.5" fill="#956cb4" />
<circle cx="23.3426585" cy="-211.16316199999997" r="0.5" fill="#d65f5f" />
<circle cx="-154.87185" cy="-6.6949946" r="0.5" fill="#d65f5f" />
<circle cx="-74.3428" cy="198.190293" r="0.5" fill="#d65f5f" />
<circle cx="-42.799379" cy="-100.454571" r="2" fill="#8c613c" />
<text x="-42.799379" y="-100.454571" font-size="2">Food science</text>
<circle cx="-145.769134" cy="60.208365" r="0.5" fill="#8c613c" />
<circle cx="-128.409204" cy="-110.56063200000001" r="0.5" fill="#dc7ec0" />
<circle cx="-61.824245000000005" cy="114.36270999999998" r="0.5" fill="#d65f5f" />
<circle cx="-54.7514065" cy="-177.14533899999998" r="0.5" fill="#dc7ec0" />
<circle cx="139.226829" cy="-28.070826000000004" r="2" fill="#6acc64" />
<text x="139.226829" y="-28.070826000000004" font-size="2">Futures studies</text>
<circle cx="-124.5258" cy="-39.222059099999996" r="0.5" fill="#956cb4" />
<circle cx="-97.740741" cy="-38.812343500000004" r="0.5" fill="#ee854a" />
<circle cx="-118.08827099999999" cy="-155.62967" r="0.5" fill="#dc7ec0" />
<circle cx="61.586" cy="27.288247" r="0.5" fill="#956cb4" />
<circle cx="138.42171" cy="-169.685754" r="0.5" fill="#4878d0" />
<circle cx="-42.474775" cy="126.131495" r="0.5" fill="#d65f5f" />
<circle cx="-89.96372699999999" cy="-163.938397" r="0.5" fill="#dc7ec0" />
<circle cx="-88.602822" cy="36.7753981" r="0.5" fill="#d65f5f" />
<circle cx="-81.583796" cy="-209.136165" r="0.5" fill="#d65f5f" />
<circle cx="-51.764293" cy="17.754685199999997" r="0.5" fill="#6acc64" />
<circle cx="107.568496" cy="72.02137599999999" r="0.5" fill="#956cb4" />
<circle cx="10.2089673" cy="95.15918300000001" r="0.5" fill="#956cb4" />
<circle cx="8.611382500000001" cy="-33.8628381" r="0.5" fill="#6acc64" />
<circle cx="-70.53755799999999" cy="-72.686012" r="2" fill="#dc7ec0" />
<text x="-70.53755799999999" y="-72.686012" font-size="2">Hazard symbol</text>
<circle cx="-106.950438" cy="218.629852" r="0.5" fill="#d65f5f" />
<circle cx="230.91418000000002" cy="-221.515042" r="0.5" fill="#4878d0" />
<circle cx="194.75505" cy="-137.088504" r="0.5" fill="#4878d0" />
<circle cx="18.1931953" cy="-48.8345655" r="0.5" fill="#956cb4" />
<circle cx="40.0700391" cy="-111.12205300000001" r="0.5" fill="#6acc64" />
<circle cx="-103.71309199999999" cy="-172.302424" r="0.5" fill="#dc7ec0" />
<circle cx="1.0388819" cy="69.00961899999999" r="0.5" fill="#956cb4" />
<circle cx="19.3739679" cy="-5.81405412" r="0.5" fill="#6acc64" />
<circle cx="-109.815762" cy="-81.0831" r="0.5" fill="#dc7ec0" />
<circle cx="39.54947009999999" cy="49.8608775" r="0.5" fill="#956cb4" />
<circle cx="121.047766" cy="65.400888" r="0.5" fill="#956cb4" />
<circle cx="-200.674831" cy="162.25203399999998" r="0.5" fill="#8c613c" />
<circle cx="-18.8271335" cy="87.530933" r="0.5" fill="#956cb4" />
<circle cx="63.82324900000001" cy="171.304987" r="0.5" fill="#dc7ec0" />
<circle cx="-6.090809199999999" cy="104.906564" r="0.5" fill="#d65f5f" />
<circle cx="-121.190048" cy="89.227873" r="0.5" fill="#8c613c" />
<circle cx="-146.615049" cy="3.0741438" r="0.5" fill="#ee854a" />
<circle cx="-141.63807" cy="177.27577000000002" r="0.5" fill="#8c613c" />
<circle cx="-121.029755" cy="89.163963" r="0.5" fill="#8c613c" />
<circle cx="-27.4890819" cy="1.73262005" r="0.5" fill="#956cb4" />
<circle cx="44.7201321" cy="62.040600999999995" r="0.5" fill="#956cb4" />
<circle cx="81.362211" cy="-107.17056" r="0.5" fill="#6acc64" />
<circle cx="-149.810409" cy="-0.8211565599999999" r="0.5" fill="#d65f5f" />
<circle cx="-36.3915839" cy="153.816082" r="0.5" fill="#d65f5f" />
<circle cx="-79.26261000000001" cy="168.704207" r="0.5" fill="#d65f5f" />
<circle cx="-18.052557599999997" cy="148.894396" r="0.5" fill="#d65f5f" />
<circle cx="-97.432741" cy="-155.387225" r="0.5" fill="#dc7ec0" />
<circle cx="-48.478119199999995" cy="124.200174" r="0.5" fill="#d65f5f" />
<circle cx="83.15672400000001" cy="-47.9285471" r="0.5" fill="#6acc64" />
<circle cx="-243.56857" cy="52.348632" r="0.5" fill="#8c613c" />
<circle cx="122.487036" cy="-0.49857325" r="0.5" fill="#956cb4" />
<circle cx="-165.53523" cy="160.188168" r="0.5" fill="#d65f5f" />
<circle cx="138.12105999999997" cy="-89.236714" r="0.5" fill="#6acc64" />
<circle cx="-87.365425" cy="-104.26345300000001" r="2" fill="#dc7ec0" />
<text x="-87.365425" y="-104.26345300000001" font-size="2">Laminar flow cabinet</text>
<circle cx="-113.039514" cy="-110.49939599999999" r="0.5" fill="#dc7ec0" />
<circle cx="-52.313050999999994" cy="223.066683" r="0.5" fill="#8c613c" />
<circle cx="105.42823899999999" cy="67.330781" r="0.5" fill="#956cb4" />
<circle cx="155.147265" cy="125.80302" r="0.5" fill="#d65f5f" />
<circle cx="48.02917" cy="41.296234000000005" r="8" fill="#956cb4" />
<text x="48.02917" y="41.296234000000005" font-size="8">Literature review</text>
<circle cx="40.051931499999995" cy="78.532055" r="0.5" fill="#956cb4" />
<circle cx="32.279337999999996" cy="-60.981081" r="0.5" fill="#dc7ec0" />
<circle cx="14.9110759" cy="99.44708200000001" r="0.5" fill="#956cb4" />
<circle cx="93.41986849999998" cy="127.68378" r="0.5" fill="#6acc64" />
<circle cx="-70.0512295" cy="-102.629583" r="2" fill="#dc7ec0" />
<text x="-70.0512295" y="-102.629583" font-size="2">Magnifying glass</text>
<circle cx="67.891341" cy="-188.37371" r="0.5" fill="#4878d0" />
<circle cx="45.9802679" cy="-79.927169" r="0.5" fill="#6acc64" />
<circle cx="-84.275954" cy="128.36568499999998" r="0.5" fill="#d65f5f" />
<circle cx="165.158518" cy="124.464515" r="0.5" fill="#d65f5f" />
<circle cx="-65.230886" cy="-19.6389375" r="0.5" fill="#8c613c" />
<circle cx="115.25554599999998" cy="-167.698818" r="0.5" fill="#d65f5f" />
<circle cx="-49.27923700000001" cy="177.174816" r="0.5" fill="#d65f5f" />
<circle cx="-82.807018" cy="139.785534" r="8" fill="#d65f5f" />
<text x="-82.807018" y="139.785534" font-size="8">Master of Science</text>
<circle cx="-29.0716132" cy="173.57102" r="0.5" fill="#d65f5f" />
<circle cx="55.580161" cy="158.65337599999998" r="0.5" fill="#dc7ec0" />
<circle cx="-35.17526740000001" cy="90.49033" r="0.5" fill="#956cb4" />
<circle cx="28.690752999999997" cy="-45.8336389" r="0.5" fill="#956cb4" />
<circle cx="-236.516735" cy="101.19050899999999" r="0.5" fill="#8c613c" />
<circle cx="94.242659" cy="-23.426827900000006" r="0.5" fill="#6acc64" />
<circle cx="82.679079" cy="-142.706935" r="0.5" fill="#6acc64" />
<circle cx="183.73574100000002" cy="145.304607" r="0.5" fill="#d65f5f" />
<circle cx="-46.461716" cy="107.099587" r="0.5" fill="#d65f5f" />
<circle cx="129.21076699999998" cy="-222.579364" r="0.5" fill="#4878d0" />
<circle cx="-226.48248" cy="95.82097" r="0.5" fill="#8c613c" />
<circle cx="-187.13155999999998" cy="47.877868500000005" r="0.5" fill="#8c613c" />
<circle cx="-192.151659" cy="47.88304219999999" r="0.5" fill="#8c613c" />
<circle cx="2.89286872" cy="196.21982799999998" r="0.5" fill="#d65f5f" />
<circle cx="35.278075" cy="-203.452319" r="0.5" fill="#dc7ec0" />
<circle cx="-73.62275199999999" cy="30.288353199999996" r="0.5" fill="#4878d0" />
<circle cx="68.021436" cy="21.183332099999998" r="0.5" fill="#956cb4" />
<circle cx="89.881624" cy="170.70935" r="0.5" fill="#dc7ec0" />
<circle cx="195.765535" cy="109.85734900000001" r="0.5" fill="#d65f5f" />
<circle cx="192.301102" cy="115.759448" r="0.5" fill="#d65f5f" />
<circle cx="-83.777568" cy="130.06228199999998" r="0.5" fill="#d65f5f" />
<circle cx="171.380678" cy="-217.45620399999999" r="0.5" fill="#4878d0" />
<circle cx="-175.957313" cy="71.53141099999999" r="0.5" fill="#8c613c" />
<circle cx="-148.16032" cy="73.27653900000001" r="0.5" fill="#d65f5f" />
<circle cx="-198.737994" cy="158.278414" r="0.5" fill="#8c613c" />
<circle cx="-93.60862" cy="88.45456200000001" r="0.5" fill="#8c613c" />
<circle cx="-96.64953200000001" cy="123.80199999999999" r="0.5" fill="#d65f5f" />
<circle cx="84.03558100000001" cy="10.080430499999999" r="0.5" fill="#956cb4" />
<circle cx="136.726611" cy="-0.179175871" r="2" fill="#6acc64" />
<text x="136.726611" y="-0.179175871" font-size="2">Necessity is the mother of invention</text>
<circle cx="-86.514911" cy="232.884232" r="2" fill="#d65f5f" />
<text x="-86.514911" y="232.884232" font-size="2">Noel Fitzpatrick</text>
<circle cx="25.4063138" cy="-176.960406" r="0.5" fill="#956cb4" />
<circle cx="52.94443" cy="-210.69344800000002" r="0.5" fill="#4878d0" />
<circle cx="-82.45639500000001" cy="82.389118" r="0.5" fill="#d65f5f" />
<circle cx="-84.20850899999999" cy="85.068172" r="0.5" fill="#d65f5f" />
<circle cx="-58.745225" cy="-167.63082" r="0.5" fill="#dc7ec0" />
<circle cx="100.47477300000001" cy="-10.135487600000001" r="0.5" fill="#956cb4" />
<circle cx="133.76040999999998" cy="8.3869975" r="0.5" fill="#956cb4" />
<circle cx="109.24253200000001" cy="-40.716361" r="0.5" fill="#6acc64" />
<circle cx="-79.030896" cy="-9.024148" r="0.5" fill="#8c613c" />
<circle cx="-15.952799800000001" cy="-14.5015269" r="0.5" fill="#8c613c" />
<circle cx="6.13313561" cy="145.51385100000002" r="0.5" fill="#956cb4" />
<circle cx="98.77944299999999" cy="-166.273709" r="0.5" fill="#d65f5f" />
<circle cx="75.003642" cy="21.462639099999997" r="0.5" fill="#956cb4" />
<circle cx="-74.136314" cy="-164.378795" r="0.5" fill="#dc7ec0" />
<circle cx="-146.601966" cy="-158.902611" r="0.5" fill="#dc7ec0" />
<circle cx="145.344276" cy="-135.739058" r="0.5" fill="#4878d0" />
<circle cx="-138.864859" cy="-111.74449299999999" r="0.5" fill="#dc7ec0" />
<circle cx="-135.09275499999998" cy="-109.379137" r="0.5" fill="#dc7ec0" />
<circle cx="-99.98093" cy="229.922462" r="2" fill="#d65f5f" />
<text x="-99.98093" y="229.922462" font-size="2">Patrick Collison</text>
<circle cx="-5.49105319" cy="117.321561" r="0.5" fill="#d65f5f" />
<circle cx="91.28019599999999" cy="-61.659625999999996" r="0.5" fill="#956cb4" />
<circle cx="22.6093924" cy="9.9711262" r="0.5" fill="#956cb4" />
<circle cx="-164.62635699999998" cy="114.277954" r="0.5" fill="#d65f5f" />
<circle cx="-28.818433000000002" cy="181.302121" r="0.5" fill="#d65f5f" />
<circle cx="-150.102806" cy="94.01635599999999" r="0.5" fill="#8c613c" />
<circle cx="-71.4746865" cy="-93.16264299999999" r="0.5" fill="#dc7ec0" />
<circle cx="-129.04301900000002" cy="5.386707199999999" r="0.5" fill="#d65f5f" />
<circle cx="-117.00017000000001" cy="-92.041453" r="0.5" fill="#d65f5f" />
<circle cx="-93.334892" cy="-81.61821499999999" r="0.5" fill="#dc7ec0" />
<circle cx="-47.101071499999996" cy="89.537343" r="0.5" fill="#d65f5f" />
<circle cx="51.62941909999999" cy="78.943382" r="0.5" fill="#956cb4" />
<circle cx="-114.94856100000001" cy="-78.29912999999999" r="0.5" fill="#dc7ec0" />
<circle cx="85.39726999999999" cy="82.823244" r="0.5" fill="#956cb4" />
<circle cx="60.656071" cy="-23.3193352" r="0.5" fill="#6acc64" />
<circle cx="-8.2037725" cy="47.81371" r="0.5" fill="#6acc64" />
<circle cx="25.6570839" cy="72.80066500000001" r="2" fill="#956cb4" />
<text x="25.6570839" y="72.80066500000001" font-size="2">Publication</text>
<circle cx="-216.002472" cy="162.334781" r="0.5" fill="#8c613c" />
<circle cx="-8.282218700000001" cy="143.063606" r="0.5" fill="#d65f5f" />
<circle cx="-87.535847" cy="68.926585" r="0.5" fill="#d65f5f" />
<circle cx="-27.8978196" cy="130.986765" r="0.5" fill="#956cb4" />
<circle cx="-33.959184" cy="41.374732" r="0.5" fill="#956cb4" />
<circle cx="101.234259" cy="41.3731899" r="0.5" fill="#956cb4" />
<circle cx="4.1514522" cy="-60.569957" r="0.5" fill="#956cb4" />
<circle cx="-49.2734809" cy="64.68379399999999" r="2" fill="#8c613c" />
<text x="-49.2734809" y="64.68379399999999" font-size="2">Research and development</text>
<circle cx="56.42013300000001" cy="37.3722139" r="0.5" fill="#956cb4" />
<circle cx="-27.3640528" cy="53.996005" r="0.5" fill="#956cb4" />
<circle cx="66.57586599999999" cy="-120.06516200000002" r="0.5" fill="#6acc64" />
<circle cx="17.8661168" cy="-151.43977800000002" r="0.5" fill="#d65f5f" />
<circle cx="-85.321992" cy="96.75581299999999" r="0.5" fill="#d65f5f" />
<circle cx="-56.962171000000005" cy="162.306305" r="0.5" fill="#d65f5f" />
<circle cx="-84.07925399999999" cy="-87.42393100000001" r="0.5" fill="#dc7ec0" />
<circle cx="-81.16885699999999" cy="189.52511199999998" r="0.5" fill="#d65f5f" />
<circle cx="-156.40765" cy="9.004515799999998" r="0.5" fill="#d65f5f" />
<circle cx="-239.34491" cy="121.108925" r="0.5" fill="#8c613c" />
<circle cx="-124.70321500000001" cy="142.06364200000002" r="0.5" fill="#d65f5f" />
<circle cx="-12.1869776" cy="97.224799" r="0.5" fill="#956cb4" />
<circle cx="105.706125" cy="-189.067249" r="0.5" fill="#4878d0" />
<circle cx="3.19865" cy="44.9310449" r="0.5" fill="#956cb4" />
<circle cx="-56.728776999999994" cy="142.6397" r="0.5" fill="#d65f5f" />
<circle cx="-49.022346799999994" cy="164.477621" r="0.5" fill="#8c613c" />
<circle cx="109.709313" cy="-205.343033" r="0.5" fill="#4878d0" />
<circle cx="195.33655399999998" cy="159.540941" r="0.5" fill="#d65f5f" />
<circle cx="-43.579925900000006" cy="178.629843" r="0.5" fill="#8c613c" />
<circle cx="196.298949" cy="61.512933999999994" r="0.5" fill="#8c613c" />
<circle cx="-205.672705" cy="58.083256000000006" r="0.5" fill="#8c613c" />
<circle cx="-224.717185" cy="48.0955664" r="0.5" fill="#8c613c" />
<circle cx="-165.737061" cy="74.22215499999999" r="0.5" fill="#8c613c" />
<circle cx="-232.53293000000002" cy="114.02132699999999" r="0.5" fill="#8c613c" />
<circle cx="195.97745999999998" cy="62.332024999999994" r="0.5" fill="#8c613c" />
<circle cx="-190.285319" cy="79.956457" r="0.5" fill="#8c613c" />
<circle cx="-192.566451" cy="79.581187" r="0.5" fill="#8c613c" />
<circle cx="-236.589738" cy="122.01588" r="0.5" fill="#8c613c" />
<circle cx="-187.509728" cy="140.300503" r="2" fill="#8c613c" />
<text x="-187.509728" y="140.300503" font-size="2">Science and technology in India</text>
<circle cx="204.016939" cy="30.918878900000003" r="0.5" fill="#8c613c" />
<circle cx="-197.882755" cy="61.123475" r="0.5" fill="#8c613c" />
<circle cx="-213.53677100000002" cy="38.885836499999996" r="0.5" fill="#8c613c" />
<circle cx="-245.53945500000003" cy="43.5547749" r="0.5" fill="#8c613c" />
<circle cx="201.55692200000001" cy="47.5672869" r="0.5" fill="#8c613c" />
<circle cx="-167.63243" cy="50.417891999999995" r="0.5" fill="#8c613c" />
<circle cx="-154.929768" cy="72.929003" r="0.5" fill="#8c613c" />
<circle cx="-213.30883000000003" cy="73.913126" r="0.5" fill="#8c613c" />
<circle cx="-216.49725999999998" cy="99.84675399999999" r="0.5" fill="#8c613c" />
<circle cx="-9.4477173" cy="48.3834869" r="0.5" fill="#6acc64" />
<circle cx="-195.62629099999998" cy="131.803112" r="0.5" fill="#8c613c" />
<circle cx="174.241088" cy="129.827901" r="0.5" fill="#8c613c" />
<circle cx="-33.272022" cy="24.155437599999996" r="0.5" fill="#956cb4" />
<circle cx="-3.18970148" cy="37.195277" r="0.5" fill="#956cb4" />
<circle cx="-145.343632" cy="102.75103650000001" r="0.5" fill="#8c613c" />
<circle cx="8.263951500000001" cy="2.6521236" r="0.5" fill="#956cb4" />
<circle cx="110.241929" cy="-64.05649600000001" r="0.5" fill="#6acc64" />
<circle cx="45.6831781" cy="100.320717" r="0.5" fill="#956cb4" />
<circle cx="3.6233323" cy="28.587066199999995" r="0.5" fill="#956cb4" />
<circle cx="61.391302" cy="-81.786845" r="0.5" fill="#6acc64" />
<circle cx="48.218083199999995" cy="-59.426849999999995" r="0.5" fill="#6acc64" />
<circle cx="33.7539902" cy="-77.548009" r="0.5" fill="#6acc64" />
<circle cx="-183.50223499999998" cy="113.85029599999999" r="0.5" fill="#6acc64" />
<circle cx="-28.581121099999997" cy="-0.676765845" r="0.5" fill="#dc7ec0" />
<circle cx="77.069153" cy="-55.2034028" r="2" fill="#6acc64" />
<text x="77.069153" y="-55.2034028" font-size="2">Scientism</text>
<circle cx="127.703282" cy="-41.371659" r="0.5" fill="#6acc64" />
<circle cx="-3.3413674" cy="97.91289900000001" r="0.5" fill="#956cb4" />
<circle cx="61.17960099999999" cy="42.240335900000005" r="0.5" fill="#956cb4" />
<circle cx="-48.0283958" cy="57.013389999999994" r="0.5" fill="#956cb4" />
<circle cx="114.32574299999999" cy="-16.338513099999997" r="0.5" fill="#6acc64" />
<circle cx="-158.272471" cy="-150.749312" r="0.5" fill="#dc7ec0" />
<circle cx="-59.26727100000001" cy="-162.26386399999998" r="0.5" fill="#dc7ec0" />
<circle cx="-16.1874181" cy="25.752024900000002" r="0.5" fill="#956cb4" />
<circle cx="72.457826" cy="-20.7607358" r="0.5" fill="#6acc64" />
<circle cx="194.08988900000003" cy="-142.326968" r="0.5" fill="#4878d0" />
<circle cx="139.95600499999998" cy="37.12270519999999" r="0.5" fill="#dc7ec0" />
<circle cx="105.52341799999999" cy="4.0195722" r="2" fill="#956cb4" />
<text x="105.52341799999999" y="4.0195722" font-size="2">Speed reading</text>
<circle cx="-52.12006099999999" cy="68.436851" r="2" fill="#956cb4" />
<text x="-52.12006099999999" y="68.436851" font-size="2">State of the art</text>
<circle cx="125.35237400000001" cy="-178.000788" r="0.5" fill="#4878d0" />
<circle cx="-101.756284" cy="-122.54711699999999" r="0.5" fill="#dc7ec0" />
<circle cx="-88.476864" cy="13.279582399999999" r="0.5" fill="#956cb4" />
<circle cx="-155.859816" cy="-51.66284900000001" r="0.5" fill="#dc7ec0" />
<circle cx="-252.76287399999998" cy="68.769463" r="0.5" fill="#d65f5f" />
<circle cx="-156.51137599999998" cy="-45.6900311" r="0.5" fill="#ee854a" />
<circle cx="53.096822800000005" cy="-11.0605544" r="0.5" fill="#6acc64" />
<circle cx="87.866989" cy="126.483245" r="0.5" fill="#956cb4" />
<circle cx="15.472762199999998" cy="28.1707419" r="0.5" fill="#956cb4" />
<circle cx="143.526915" cy="-21.617652" r="0.5" fill="#8c613c" />
<circle cx="96.132792" cy="-120.53960800000002" r="0.5" fill="#6acc64" />
<circle cx="-102.26183099999999" cy="28.26516" r="0.5" fill="#6acc64" />
<circle cx="167.536278" cy="95.341092" r="0.5" fill="#d65f5f" />
<circle cx="175.800702" cy="-253.59287799999998" r="0.5" fill="#4878d0" />
<circle cx="-23.879842" cy="108.876698" r="0.5" fill="#d65f5f" />
<circle cx="118.575961" cy="-125.248809" r="0.5" fill="#6acc64" />
<circle cx="98.17019800000001" cy="-230.053838" r="0.5" fill="#4878d0" />
<circle cx="101.380979" cy="-48.0850391" r="0.5" fill="#6acc64" />
<circle cx="113.21332400000001" cy="-141.256612" r="0.5" fill="#4878d0" />
<circle cx="-29.226647099999997" cy="-31.5997185" r="0.5" fill="#8c613c" />
<circle cx="45.4782608" cy="9.1368361" r="0.5" fill="#956cb4" />
<circle cx="10.5590016" cy="-84.831257" r="0.5" fill="#956cb4" />
<circle cx="56.683847500000006" cy="17.9507678" r="0.5" fill="#956cb4" />
<circle cx="155.93687899999998" cy="-172.282579" r="0.5" fill="#4878d0" />
<circle cx="79.292591" cy="-75.666745" r="0.5" fill="#6acc64" />
<circle cx="143.88665899999998" cy="-85.73768" r="0.5" fill="#4878d0" />
<circle cx="9.9336706" cy="43.185449999999996" r="0.5" fill="#956cb4" />
<circle cx="-74.083002" cy="194.113759" r="0.5" fill="#d65f5f" />
<circle cx="-45.994466" cy="130.897172" r="0.5" fill="#d65f5f" />
<circle cx="-115.953509" cy="-142.955743" r="0.5" fill="#dc7ec0" />
<circle cx="-106.61271599999999" cy="-102.328247" r="8" fill="#dc7ec0" />
<text x="-106.61271599999999" y="-102.328247" font-size="8">Ultraviolet–visible spectroscopy</text>
<circle cx="-86.73320600000001" cy="91.158725" r="0.5" fill="#d65f5f" />
<circle cx="111.019692" cy="-126.19609100000001" r="0.5" fill="#6acc64" />
<circle cx="-132.835458" cy="-135.98669" r="8" fill="#dc7ec0" />
<text x="-132.835458" y="-135.98669" font-size="8">Vantablack</text>
<circle cx="-185.06663000000003" cy="153.12574899999998" r="0.5" fill="#8c613c" />
<circle cx="-53.505974200000004" cy="190.94488" r="0.5" fill="#d65f5f" />
<circle cx="98.255171" cy="89.523301" r="0.5" fill="#956cb4" />
<circle cx="-18.270106400000003" cy="106.13590049999999" r="0.5" fill="#d65f5f" />
<circle cx="35.8438311" cy="-125.93959" r="0.5" fill="#6acc64" />
<circle cx="-19.6824635" cy="181.65168" r="0.5" fill="#d65f5f" />
<circle cx="-36.844097500000004" cy="162.784286" r="0.5" fill="#d65f5f" />
<circle cx="-148.674869" cy="121.66023099999998" r="0.5" fill="#d65f5f" />
<circle cx="193.764956" cy="-142.245257" r="0.5" fill="#4878d0" />
<circle cx="-66.752861" cy="-56.813876" r="0.5" fill="#dc7ec0" />
<circle cx="-4.12156255" cy="-83.659933" r="0.5" fill="#6acc64" />
<circle cx="-105.589393" cy="26.743577000000002" r="0.5" fill="#6acc64" />
<circle cx="-4.3122666999999995" cy="-84.832531" r="0.5" fill="#6acc64" />
<circle cx="94.036201" cy="12.566204" r="0.5" fill="#956cb4" />
<circle cx="-3.7784788999999996" cy="83.646087" r="0.5" fill="#956cb4" />
<circle cx="-123.16874500000002" cy="-161.638442" r="0.5" fill="#dc7ec0" />
<circle cx="-60.337417" cy="40.377526" r="0.5" fill="#d65f5f" />
<circle cx="-117.10573" cy="-199.977876" r="0.5" fill="#dc7ec0" />
<circle cx="167.88591399999999" cy="238.35688100000002" r="0.5" fill="#ee854a" />
<circle cx="155.236837" cy="251.252561" r="0.5" fill="#ee854a" />
<circle cx="164.061072" cy="249.43478000000002" r="0.5" fill="#ee854a" />
<circle cx="166.259758" cy="244.583752" r="0.5" fill="#ee854a" />
<circle cx="157.79323" cy="245.702926" r="0.5" fill="#ee854a" />
<circle cx="158.245318" cy="243.398148" r="0.5" fill="#ee854a" />
<circle cx="156.708538" cy="236.47715" r="0.5" fill="#ee854a" />
<circle cx="192.426178" cy="-210.95285399999997" r="0.5" fill="#4878d0" />
<circle cx="122.653769" cy="42.497903" r="0.5" fill="#dc7ec0" />
<circle cx="-96.017124" cy="135.482046" r="0.5" fill="#d65f5f" />
<circle cx="-119.147763" cy="126.532952" r="0.5" fill="#d65f5f" />
<circle cx="-131.02574800000002" cy="-81.64310699999999" r="0.5" fill="#dc7ec0" />
<circle cx="-123.54012999999999" cy="-143.896375" r="0.5" fill="#dc7ec0" />
<circle cx="170.426662" cy="139.256537" r="0.5" fill="#d65f5f" />
<circle cx="36.5179822" cy="29.310406999999998" r="0.5" fill="#956cb4" />
<circle cx="175.884478" cy="-194.89551199999997" r="0.5" fill="#6acc64" />
<circle cx="-207.53873000000002" cy="-76.01422500000001" r="0.5" fill="#4878d0" />
<circle cx="137.172672" cy="-202.011355" r="0.5" fill="#4878d0" />
<circle cx="-29.810990999999994" cy="89.694241" r="0.5" fill="#d65f5f" />
<circle cx="31.036684000000005" cy="22.5825012" r="2" fill="#956cb4" />
<text x="31.036684000000005" y="22.5825012" font-size="2">Basic research</text>
<circle cx="-143.77762" cy="182.2107" r="0.5" fill="#4878d0" />
<circle cx="188.02176400000002" cy="-214.290349" r="0.5" fill="#4878d0" />
<circle cx="1.52963363" cy="142.70774" r="0.5" fill="#956cb4" />
<circle cx="-212.92496400000002" cy="-81.22793" r="0.5" fill="#4878d0" />
<circle cx="141.18368600000002" cy="-183.588461" r="0.5" fill="#4878d0" />
<circle cx="47.5753509" cy="-117.136565" r="0.5" fill="#6acc64" />
<circle cx="118.95499000000001" cy="-47.425438199999995" r="0.5" fill="#6acc64" />
<circle cx="139.98124" cy="-211.832152" r="0.5" fill="#4878d0" />
<circle cx="-208.65488000000002" cy="-77.856002" r="0.5" fill="#d65f5f" />
<circle cx="-108.199868" cy="-24.3909568" r="0.5" fill="#ee854a" />
<circle cx="-164.41544000000002" cy="-147.461986" r="0.5" fill="#dc7ec0" />
<circle cx="-35.97598060000001" cy="193.017958" r="0.5" fill="#d65f5f" />
<circle cx="-198.91285399999998" cy="-68.622855" r="0.5" fill="#4878d0" />
<circle cx="175.071218" cy="-207.79703699999996" r="0.5" fill="#4878d0" />
<circle cx="-75.598747" cy="-107.520245" r="0.5" fill="#dc7ec0" />
<circle cx="192.21656300000004" cy="70.273945" r="0.5" fill="#d65f5f" />
<circle cx="-88.26324849999999" cy="-124.18930999999998" r="0.5" fill="#dc7ec0" />
<circle cx="58.97429999999999" cy="65.219329" r="0.5" fill="#956cb4" />
<circle cx="67.59018" cy="-161.032494" r="0.5" fill="#6acc64" />
<circle cx="48.8575899" cy="-18.5767673" r="0.5" fill="#6acc64" />
<circle cx="130.219845" cy="-26.28948" r="0.5" fill="#6acc64" />
<circle cx="207.19293699999997" cy="-190.68232400000002" r="0.5" fill="#4878d0" />
<circle cx="-113.3006" cy="-82.81860999999999" r="0.5" fill="#dc7ec0" />
<circle cx="186.53894000000003" cy="-234.47039" r="0.5" fill="#4878d0" />
<circle cx="160.524224" cy="-207.74590199999997" r="0.5" fill="#4878d0" />
<circle cx="-139.670062" cy="16.336835900000004" r="0.5" fill="#d65f5f" />
<circle cx="213.158939" cy="-187.23908" r="0.5" fill="#4878d0" />
<circle cx="209.33677799999998" cy="-204.575616" r="0.5" fill="#4878d0" />
<circle cx="-72.16461" cy="152.731628" r="0.5" fill="#d65f5f" />
<circle cx="13.9273183" cy="130.15124500000002" r="0.5" fill="#956cb4" />
<circle cx="-97.87503600000001" cy="-19.271467599999998" r="0.5" fill="#ee854a" />
<circle cx="84.286279" cy="-18.744372499999997" r="0.5" fill="#956cb4" />
<circle cx="84.0855225" cy="-20.7384401" r="0.5" fill="#956cb4" />
<circle cx="108.873989" cy="-30.605266999999998" r="0.5" fill="#6acc64" />
<circle cx="91.403333" cy="-63.854924000000004" r="0.5" fill="#dc7ec0" />
<circle cx="-83.634824" cy="9.599893799999998" r="0.5" fill="#dc7ec0" />
<circle cx="-226.83851399999998" cy="77.60510099999999" r="0.5" fill="#8c613c" />
<circle cx="29.1875269" cy="97.406484" r="0.5" fill="#956cb4" />
<circle cx="175.49625799999998" cy="-218.27243199999998" r="0.5" fill="#4878d0" />
<circle cx="-17.410595999999998" cy="-36.405054" r="0.5" fill="#8c613c" />
<circle cx="49.04963" cy="26.498985799999996" r="0.5" fill="#956cb4" />
<circle cx="111.410117" cy="48.331157" r="0.5" fill="#dc7ec0" />
<circle cx="109.95739649999999" cy="22.6734431" r="0.5" fill="#956cb4" />
<circle cx="-104.11348499999998" cy="148.094044" r="0.5" fill="#d65f5f" />
<circle cx="81.845631" cy="29.707152999999998" r="0.5" fill="#956cb4" />
<circle cx="27.720712599999995" cy="49.697837" r="0.5" fill="#956cb4" />
<circle cx="37.94805" cy="38.702034" r="0.5" fill="#956cb4" />
<circle cx="6.9772658199999995" cy="-116.05267099999999" r="0.5" fill="#6acc64" />
<circle cx="-131.652038" cy="-107.15994800000001" r="0.5" fill="#dc7ec0" />
<circle cx="84.63991200000001" cy="-224.23772" r="0.5" fill="#4878d0" />
<circle cx="-197.84042599999998" cy="162.069208" r="0.5" fill="#8c613c" />
<circle cx="-0.6601122150000001" cy="230.84327" r="0.5" fill="#d65f5f" />
<circle cx="80.935638" cy="-223.34473699999998" r="0.5" fill="#4878d0" />
<circle cx="-77.586278" cy="-112.56280000000001" r="0.5" fill="#dc7ec0" />
<circle cx="-204.15189900000001" cy="147.706209" r="0.5" fill="#8c613c" />
<circle cx="-160.377903" cy="-44.180089800000005" r="0.5" fill="#ee854a" />
<circle cx="-167.969438" cy="-77.449715" r="0.5" fill="#d65f5f" />
<circle cx="212.39518999999999" cy="-192.033499" r="0.5" fill="#4878d0" />
<circle cx="-207.60405399999996" cy="-23.8373149" r="0.5" fill="#d65f5f" />
<circle cx="-3.27552309" cy="-126.729218" r="0.5" fill="#6acc64" />
<circle cx="-12.510796200000001" cy="-64.34008700000001" r="0.5" fill="#6acc64" />
<circle cx="130.990034" cy="-155.785378" r="0.5" fill="#4878d0" />
<circle cx="-104.028176" cy="-70.33310200000001" r="0.5" fill="#dc7ec0" />
<circle cx="1.52607028" cy="104.79058099999999" r="0.5" fill="#956cb4" />
<circle cx="162.64539200000002" cy="-224.84769999999997" r="0.5" fill="#4878d0" />
<circle cx="79.828742" cy="-137.343185" r="0.5" fill="#6acc64" />
<circle cx="198.56928000000002" cy="-210.96247899999997" r="0.5" fill="#4878d0" />
<circle cx="176.258362" cy="-247.25358000000003" r="0.5" fill="#4878d0" />
<circle cx="-102.621092" cy="-83.51710499999999" r="8" fill="#dc7ec0" />
<text x="-102.621092" y="-83.51710499999999" font-size="8">In vivo</text>
<circle cx="79.719367" cy="52.2109" r="0.5" fill="#956cb4" />
<circle cx="3.17387336" cy="160.71384" r="0.5" fill="#956cb4" />
<circle cx="184.21421899999999" cy="-219.30776" r="0.5" fill="#4878d0" />
<circle cx="-36.734446000000005" cy="-179.265695" r="0.5" fill="#dc7ec0" />
<circle cx="12.441046799999999" cy="-151.62097999999997" r="0.5" fill="#6acc64" />
<circle cx="147.46361" cy="-246.770881" r="0.5" fill="#4878d0" />
<circle cx="147.527646" cy="-246.651678" r="0.5" fill="#4878d0" />
<circle cx="168.543725" cy="-171.89277" r="0.5" fill="#4878d0" />
<circle cx="166.614469" cy="-136.07228600000002" r="0.5" fill="#8c613c" />
<circle cx="174.9447" cy="103.92576600000001" r="0.5" fill="#d65f5f" />
<circle cx="119.02447199999999" cy="-115.975818" r="0.5" fill="#6acc64" />
<circle cx="-214.48936600000002" cy="-69.60641100000001" r="0.5" fill="#4878d0" />
<circle cx="100.21043200000001" cy="174.32723000000001" r="0.5" fill="#dc7ec0" />
<circle cx="-210.49840700000001" cy="44.610223" r="0.5" fill="#8c613c" />
<circle cx="-93.35259500000001" cy="-139.055616" r="0.5" fill="#dc7ec0" />
<circle cx="188.382831" cy="104.627229" r="0.5" fill="#d65f5f" />
<circle cx="-202.057632" cy="-23.036146" r="0.5" fill="#956cb4" />
<circle cx="-96.00861900000001" cy="113.00501799999998" r="0.5" fill="#d65f5f" />
<circle cx="5.20648471" cy="81.82787200000001" r="0.5" fill="#956cb4" />
<circle cx="-192.974201" cy="61.475910999999996" r="0.5" fill="#8c613c" />
<circle cx="-153.868652" cy="38.564358" r="0.5" fill="#8c613c" />
<circle cx="-71.121673" cy="153.64670999999998" r="0.5" fill="#8c613c" />
<circle cx="213.730713" cy="-187.25828800000002" r="0.5" fill="#4878d0" />
<circle cx="-62.955858" cy="-31.9819402" r="0.5" fill="#dc7ec0" />
<circle cx="-126.73150000000001" cy="-50.0651242" r="0.5" fill="#dc7ec0" />
<circle cx="154.41581399999998" cy="-188.466208" r="0.5" fill="#4878d0" />
<circle cx="179.049535" cy="116.76488599999999" r="0.5" fill="#d65f5f" />
<circle cx="73.977848" cy="109.268915" r="0.5" fill="#956cb4" />
<circle cx="200.04250000000002" cy="169.828694" r="0.5" fill="#d65f5f" />
<circle cx="-63.889489999999995" cy="129.20761" r="0.5" fill="#d65f5f" />
<circle cx="50.1531471" cy="87.142146" r="0.5" fill="#956cb4" />
<circle cx="98.155204" cy="-143.039414" r="0.5" fill="#6acc64" />
<circle cx="-48.324787" cy="-217.449239" r="0.5" fill="#dc7ec0" />
<circle cx="35.945098" cy="-170.835644" r="2" fill="#6acc64" />
<text x="35.945098" y="-170.835644" font-size="2">Not even wrong</text>
<circle cx="104.175624" cy="47.2405402" r="0.5" fill="#956cb4" />
<circle cx="50.9810931" cy="65.45609" r="0.5" fill="#956cb4" />
<circle cx="130.775652" cy="-240.13879399999996" r="0.5" fill="#4878d0" />
<circle cx="149.886744" cy="-151.887925" r="0.5" fill="#4878d0" />
<circle cx="146.52533" cy="-156.468865" r="0.5" fill="#4878d0" />
<circle cx="155.977003" cy="-228.22909200000004" r="0.5" fill="#4878d0" />
<circle cx="-0.79082402" cy="-55.231568" r="0.5" fill="#956cb4" />
<circle cx="50.337609" cy="-29.499880900000004" r="0.5" fill="#6acc64" />
<circle cx="-16.875278" cy="90.20930099999998" r="0.5" fill="#956cb4" />
<circle cx="171.61231500000002" cy="-227.59973599999995" r="0.5" fill="#4878d0" />
<circle cx="65.17613899999999" cy="196.823207" r="0.5" fill="#ee854a" />
<circle cx="-27.574119300000003" cy="32.4440172" r="0.5" fill="#956cb4" />
<circle cx="90.51035" cy="37.0235208" r="0.5" fill="#956cb4" />
<circle cx="233.47583" cy="-222.39235200000002" r="0.5" fill="#4878d0" />
<circle cx="48.869229499999996" cy="-1.4976466400000001" r="0.5" fill="#956cb4" />
<circle cx="-138.469688" cy="8.770464500000001" r="0.5" fill="#8c613c" />
<circle cx="-154.552643" cy="-31.4923595" r="0.5" fill="#4878d0" />
<circle cx="141.460431" cy="-206.183586" r="0.5" fill="#4878d0" />
<circle cx="108.04947999999999" cy="57.371475000000004" r="0.5" fill="#dc7ec0" />
<circle cx="216.16040600000002" cy="-194.86523" r="0.5" fill="#4878d0" />
<circle cx="-3.81938025" cy="92.249416" r="0.5" fill="#956cb4" />
<circle cx="-156.90586100000002" cy="-24.8304112" r="0.5" fill="#d65f5f" />
<circle cx="134.578969" cy="-110.79608049999999" r="0.5" fill="#d65f5f" />
<circle cx="-94.36650999999999" cy="-97.565307" r="0.5" fill="#dc7ec0" />
<circle cx="-40.611998" cy="208.074118" r="0.5" fill="#d65f5f" />
<circle cx="-191.553607" cy="145.20034900000002" r="0.5" fill="#8c613c" />
<circle cx="-165.70302" cy="74.48604100000001" r="0.5" fill="#8c613c" />
<circle cx="200.07931999999997" cy="180.391736" r="0.5" fill="#8c613c" />
<circle cx="-167.232492" cy="97.715044" r="0.5" fill="#8c613c" />
<circle cx="-213.548062" cy="40.2091249" r="0.5" fill="#8c613c" />
<circle cx="-248.18752" cy="49.919153200000004" r="0.5" fill="#8c613c" />
<circle cx="-232.15143" cy="115.03396799999999" r="0.5" fill="#8c613c" />
<circle cx="-215.92937799999999" cy="71.602132" r="0.5" fill="#8c613c" />
<circle cx="-227.93764" cy="102.62144900000001" r="0.5" fill="#8c613c" />
<circle cx="-185.46546199999997" cy="91.601027" r="0.5" fill="#8c613c" />
<circle cx="57.305633" cy="124.9353" r="0.5" fill="#6acc64" />
<circle cx="-1.7233552" cy="58.631559" r="0.5" fill="#956cb4" />
<circle cx="-3.8699388" cy="2.8355058900000003" r="0.5" fill="#8c613c" />
<circle cx="-5.03796741" cy="-9.7252603" r="0.5" fill="#956cb4" />
<circle cx="170.790144" cy="-9.992045000000001" r="0.5" fill="#6acc64" />
<circle cx="108.72491" cy="-136.446702" r="0.5" fill="#6acc64" />
<circle cx="45.035305" cy="199.250541" r="0.5" fill="#dc7ec0" />
<circle cx="179.436593" cy="109.8658925" r="0.5" fill="#d65f5f" />
<circle cx="101.631488" cy="-33.296228" r="0.5" fill="#6acc64" />
<circle cx="145.50657800000002" cy="58.90110099999999" r="0.5" fill="#dc7ec0" />
<circle cx="103.054875" cy="-147.783034" r="0.5" fill="#6acc64" />
<circle cx="-15.9957035" cy="63.690298" r="0.5" fill="#956cb4" />
<circle cx="222.334742" cy="-189.107961" r="0.5" fill="#4878d0" />
<circle cx="190.455349" cy="-174.241508" r="0.5" fill="#4878d0" />
<circle cx="147.254289" cy="-171.53448899999998" r="0.5" fill="#4878d0" />
<circle cx="94.256309" cy="-225.02827200000004" r="0.5" fill="#4878d0" />
<circle cx="-74.516575" cy="-121.778475" r="0.5" fill="#dc7ec0" />
<circle cx="91.40852699999999" cy="26.889367400000005" r="0.5" fill="#956cb4" />
<circle cx="185.13320700000003" cy="-205.76633" r="0.5" fill="#4878d0" />
<circle cx="203.449932" cy="-215.37834499999997" r="0.5" fill="#4878d0" />
<circle cx="212.815057" cy="-218.21299499999998" r="0.5" fill="#4878d0" />
<circle cx="100.94121100000001" cy="-232.950648" r="0.5" fill="#4878d0" />
<circle cx="187.087964" cy="-234.818808" r="0.5" fill="#4878d0" />
<circle cx="191.73448000000002" cy="-218.099182" r="0.5" fill="#4878d0" />
<circle cx="107.91911900000001" cy="-159.94503" r="0.5" fill="#6acc64" />
<circle cx="160.729394" cy="-153.25921100000002" r="0.5" fill="#4878d0" />
<circle cx="203.48836899999998" cy="-223.500907" r="0.5" fill="#4878d0" />
<circle cx="127.15044299999998" cy="-143.439373" r="0.5" fill="#6acc64" />
<circle cx="-121.573487" cy="-100.031953" r="0.5" fill="#dc7ec0" />
<circle cx="-77.30069900000001" cy="131.00437" r="0.5" fill="#d65f5f" />
<circle cx="67.373509" cy="164.55754000000002" r="0.5" fill="#dc7ec0" />
<circle cx="-99.181859" cy="26.852864500000003" r="0.5" fill="#d65f5f" />
<circle cx="71.532811" cy="-38.16278200000001" r="0.5" fill="#6acc64" />
<circle cx="-64.16951800000001" cy="214.62001400000003" r="0.5" fill="#8c613c" />
<circle cx="-118.488279" cy="-119.11461100000001" r="0.5" fill="#dc7ec0" />
<circle cx="92.72407199999999" cy="42.5254725" r="0.5" fill="#956cb4" />
<circle cx="-182.718109" cy="-152.308331" r="0.5" fill="#dc7ec0" />
<circle cx="142.785713" cy="-143.098844" r="0.5" fill="#4878d0" />
<circle cx="147.279755" cy="-33.360856899999995" r="0.5" fill="#4878d0" />
<circle cx="129.44624" cy="126.95319" r="0.5" fill="#d65f5f" />
<circle cx="64.39249600000001" cy="-219.498188" r="0.5" fill="#d65f5f" />
<circle cx="188.183989" cy="148.320004" r="0.5" fill="#d65f5f" />
<circle cx="132.145706" cy="-159.267675" r="0.5" fill="#4878d0" />
<circle cx="25.5104955" cy="86.550086" r="0.5" fill="#956cb4" />
<circle cx="157.16407" cy="-146.21103" r="0.5" fill="#4878d0" />
<circle cx="35.857206" cy="-172.455738" r="0.5" fill="#6acc64" />
<circle cx="174.862226" cy="220.996433" r="0.5" fill="#ee854a" />
<circle cx="170.321172" cy="226.568419" r="0.5" fill="#ee854a" />
<circle cx="165.595514" cy="231.72044000000002" r="0.5" fill="#ee854a" />
<circle cx="151.27002099999999" cy="243.43648000000002" r="0.5" fill="#ee854a" />
<circle cx="152.59454000000002" cy="232.250606" r="0.5" fill="#ee854a" />
<circle cx="158.65745" cy="226.725352" r="0.5" fill="#ee854a" />
<circle cx="144.121005" cy="247.10151899999997" r="0.5" fill="#ee854a" />
<circle cx="141.350615" cy="239.5365" r="0.5" fill="#ee854a" />
<circle cx="136.05418400000002" cy="247.20007899999996" r="0.5" fill="#ee854a" />
<circle cx="140.97398" cy="238.66425800000002" r="0.5" fill="#ee854a" />
<circle cx="134.057007" cy="236.42136" r="0.5" fill="#ee854a" />
<circle cx="-117.29612999999999" cy="-127.97764000000001" r="2" fill="#dc7ec0" />
<text x="-117.29612999999999" y="-127.97764000000001" font-size="2">Abundance of elements in Earth's crust</text>
<circle cx="-132.247297" cy="77.648732" r="0.5" fill="#8c613c" />
<circle cx="201.065284" cy="172.37052" r="0.5" fill="#8c613c" />
<circle cx="219.790102" cy="118.367942" r="0.5" fill="#d65f5f" />
<circle cx="-38.300612" cy="-8.554396200000001" r="2" fill="#dc7ec0" />
<text x="-38.300612" y="-8.554396200000001" font-size="2">Glossary of chemistry terms</text>
<circle cx="-166.42427899999998" cy="-129.58673" r="0.5" fill="#8c613c" />
<circle cx="-43.6105579" cy="-4.3323846999999995" r="0.5" fill="#dc7ec0" />
<circle cx="-41.6650521" cy="-6.11965319" r="0.5" fill="#dc7ec0" />
<circle cx="90.188917" cy="143.16355900000002" r="0.5" fill="#d65f5f" />
<circle cx="-25.391095099999994" cy="-12.308723" r="2" fill="#8c613c" />
<text x="-25.391095099999994" y="-12.308723" font-size="2">Index of branches of science</text>
<circle cx="-177.050447" cy="132.68876600000002" r="0.5" fill="#8c613c" />
<circle cx="-140.656782" cy="1.9320419999999998" r="0.5" fill="#4878d0" />
<circle cx="-184.56709600000002" cy="93.456993" r="0.5" fill="#8c613c" />
<circle cx="-165.910983" cy="99.62689800000001" r="0.5" fill="#8c613c" />
<circle cx="2.0837574099999996" cy="-189.04486300000002" r="2" fill="#6acc64" />
<text x="2.0837574099999996" y="-189.04486300000002" font-size="2">List of Ig Nobel Prize winners</text>
<circle cx="-181.07488" cy="142.1952" r="2" fill="#8c613c" />
<text x="-181.07488" y="142.1952" font-size="2">List of Indian scientists</text>
<circle cx="-182.731031" cy="151.606966" r="0.5" fill="#8c613c" />
<circle cx="-143.89859400000003" cy="142.052491" r="0.5" fill="#d65f5f" />
<circle cx="-216.76070500000003" cy="101.192679" r="0.5" fill="#8c613c" />
<circle cx="-161.546392" cy="128.85264" r="0.5" fill="#8c613c" />
<circle cx="206.834145" cy="43.452969" r="0.5" fill="#8c613c" />
<circle cx="-204.407" cy="45.496661" r="0.5" fill="#8c613c" />
<circle cx="-175.744744" cy="144.398765" r="0.5" fill="#8c613c" />
<circle cx="70.75177200000002" cy="100.389723" r="2" fill="#956cb4" />
<text x="70.75177200000002" y="100.389723" font-size="2">List of buzzwords</text>
<circle cx="-52.995929000000004" cy="41.4918672" r="0.5" fill="#d65f5f" />
<circle cx="-92.017842" cy="8.816024700000002" r="0.5" fill="#8c613c" />
<circle cx="-44.275735000000005" cy="-155.087366" r="0.5" fill="#dc7ec0" />
<circle cx="28.222925499999995" cy="185.581018" r="2" fill="#d65f5f" />
<text x="28.222925499999995" y="185.581018" font-size="2">List of incurable diseases</text>
<circle cx="-97.925534" cy="128.64685400000002" r="0.5" fill="#d65f5f" />
<circle cx="-107.537283" cy="105.244671" r="0.5" fill="#d65f5f" />
<circle cx="-177.180465" cy="119.896854" r="0.5" fill="#8c613c" />
<circle cx="66.76426400000001" cy="190.777076" r="2" fill="#d65f5f" />
<text x="66.76426400000001" y="190.777076" font-size="2">List of organisms by chromosome count</text>
<circle cx="31.54319" cy="-117.755729" r="0.5" fill="#6acc64" />
<circle cx="-172.61483399999997" cy="119.846762" r="2" fill="#8c613c" />
<text x="-172.61483399999997" y="119.846762" font-size="2">List of people considered father or mother of a scientific field</text>
<circle cx="-126.04710999999998" cy="39.405081100000004" r="0.5" fill="#8c613c" />
<circle cx="168.44547300000002" cy="131.68302699999998" r="0.5" fill="#d65f5f" />
<circle cx="-35.774263" cy="184.836057" r="0.5" fill="#8c613c" />
<circle cx="-28.340715200000005" cy="-151.01576" r="0.5" fill="#dc7ec0" />
<circle cx="-49.067818800000005" cy="-29.704296999999997" r="0.5" fill="#8c613c" />
<circle cx="33.27996" cy="-111.65563499999999" r="8" fill="#6acc64" />
<text x="33.27996" y="-111.65563499999999" font-size="8">List of topics characterized as pseudoscience</text>
<circle cx="-38.4298145" cy="-178.873268" r="0.5" fill="#dc7ec0" />
<circle cx="157.16629600000002" cy="-120.864261" r="0.5" fill="#6acc64" />
<circle cx="154.99717800000002" cy="-132.851691" r="2" fill="#6acc64" />
<text x="154.99717800000002" y="-132.851691" font-size="2">List of unsolved problems in physics</text>
<circle cx="138.82337" cy="229.68070999999998" r="0.5" fill="#ee854a" />
<circle cx="156.91676" cy="-121.99894000000002" r="2" fill="#6acc64" />
<text x="156.91676" y="-121.99894000000002" font-size="2">Lists of unsolved problems</text>
<circle cx="-176.566698" cy="39.7615442" r="0.5" fill="#8c613c" />
<circle cx="-128.94868" cy="77.840098" r="0.5" fill="#8c613c" />
<circle cx="81.384247" cy="9.8482895" r="0.5" fill="#956cb4" />
<circle cx="-71.60888700000001" cy="189.81960199999997" r="0.5" fill="#d65f5f" />
<circle cx="-135.882551" cy="2.3690497600000002" r="2" fill="#8c613c" />
<text x="-135.882551" y="2.3690497600000002" font-size="2">Research stations in Antarctica</text>
<circle cx="-27.976334400000002" cy="-147.293573" r="0.5" fill="#dc7ec0" />
<circle cx="-174.878879" cy="116.888226" r="2" fill="#ee854a" />
<text x="-174.878879" y="116.888226" font-size="2">Timeline of scientific discoveries</text>
<circle cx="-44.825962999999994" cy="68.675187" r="0.5" fill="#956cb4" />
<circle cx="47.1463195" cy="-102.82404299999999" r="0.5" fill="#6acc64" />
<circle cx="-67.143755" cy="64.445864" r="0.5" fill="#d65f5f" />
<circle cx="2.91472608" cy="1.80067748" r="0.5" fill="#956cb4" />
<circle cx="-52.5828226" cy="92.070993" r="0.5" fill="#956cb4" />
<circle cx="-87.875704" cy="-27.2419385" r="8" fill="#8c613c" />
<text x="-87.875704" y="-27.2419385" font-size="8">Astronomy</text>
<circle cx="-169.66736500000002" cy="-152.13184" r="0.5" fill="#dc7ec0" />
<circle cx="-49.136976" cy="-110.585167" r="2" fill="#dc7ec0" />
<text x="-49.136976" y="-110.585167" font-size="2">Bain-marie</text>
<circle cx="142.615669" cy="-218.98526999999996" r="0.5" fill="#4878d0" />
<circle cx="-98.226429" cy="64.037344" r="0.5" fill="#d65f5f" />
<circle cx="-152.664148" cy="-145.476079" r="0.5" fill="#dc7ec0" />
<circle cx="180.33253" cy="-97.677419" r="2" fill="#dc7ec0" />
<text x="180.33253" y="-97.677419" font-size="2">Clockwise</text>
<circle cx="189.347977" cy="120.69245999999998" r="0.5" fill="#d65f5f" />
<circle cx="-153.148086" cy="38.6620094" r="0.5" fill="#8c613c" />
<circle cx="70.023072" cy="90.245323" r="0.5" fill="#956cb4" />
<circle cx="141.55509899999998" cy="-220.044272" r="0.5" fill="#4878d0" />
<circle cx="-163.050769" cy="45.0895599" r="0.5" fill="#8c613c" />
<circle cx="92.45907300000002" cy="-10.909707899999999" r="0.5" fill="#956cb4" />
<circle cx="-79.812544" cy="5.0273997900000005" r="2" fill="#8c613c" />
<text x="-79.812544" y="5.0273997900000005" font-size="2">Environmental science</text>
<circle cx="77.495502" cy="38.148359899999996" r="0.5" fill="#956cb4" />
<circle cx="86.455467" cy="-83.606383" r="0.5" fill="#6acc64" />
<circle cx="-42.74773090000001" cy="-51.924553100000004" r="0.5" fill="#956cb4" />
<circle cx="31.653321" cy="-122.755864" r="0.5" fill="#6acc64" />
<circle cx="94.17266950000001" cy="-92.378902" r="0.5" fill="#6acc64" />
<circle cx="-78.83984500000001" cy="16.5611684" r="0.5" fill="#956cb4" />
<circle cx="-130.703195" cy="170.02594" r="0.5" fill="#d65f5f" />
<circle cx="-76.65034999999999" cy="57.437359" r="0.5" fill="#8c613c" />
<circle cx="-64.21849" cy="-114.735964" r="0.5" fill="#dc7ec0" />
<circle cx="50.6487961" cy="51.686182800000005" r="0.5" fill="#956cb4" />
<circle cx="34.287323" cy="-26.732209" r="0.5" fill="#956cb4" />
<circle cx="-130.948818" cy="169.50940999999997" r="0.5" fill="#d65f5f" />
<circle cx="64.37204200000001" cy="-28.6177409" r="0.5" fill="#6acc64" />
<circle cx="33.8853081" cy="62.94762599999999" r="0.5" fill="#956cb4" />
<circle cx="-64.647961" cy="-73.925649" r="0.5" fill="#dc7ec0" />
<circle cx="-80.546564" cy="-163.317756" r="0.5" fill="#dc7ec0" />
<circle cx="-101.236044" cy="85.163358" r="0.5" fill="#d65f5f" />
<circle cx="-203.72707599999998" cy="169.13757" r="0.5" fill="#8c613c" />
<circle cx="-228.41343" cy="55.595393" r="0.5" fill="#8c613c" />
<circle cx="65.821553" cy="15.790786900000004" r="0.5" fill="#956cb4" />
<circle cx="6.7121170900000005" cy="191.638965" r="0.5" fill="#d65f5f" />
<circle cx="-55.80512" cy="21.5059796" r="0.5" fill="#d65f5f" />
<circle cx="49.201775000000005" cy="67.925872" r="0.5" fill="#956cb4" />
<circle cx="0.98188111" cy="40.391042999999996" r="0.5" fill="#956cb4" />
<circle cx="172.78925999999998" cy="102.583635" r="0.5" fill="#8c613c" />
<circle cx="-124.47379699999999" cy="159.813255" r="0.5" fill="#d65f5f" />
<circle cx="-159.395453" cy="-164.30117199999998" r="0.5" fill="#dc7ec0" />
<circle cx="-117.08216100000001" cy="58.363665499999996" r="0.5" fill="#8c613c" />
<circle cx="-120.60369999999999" cy="134.47569800000002" r="0.5" fill="#d65f5f" />
<circle cx="40.013421" cy="125.633249" r="0.5" fill="#4878d0" />
<circle cx="11.239398100000003" cy="65.56037599999999" r="0.5" fill="#956cb4" />
<circle cx="-82.000436" cy="54.98612000000001" r="0.5" fill="#8c613c" />
<circle cx="-179.284609" cy="187.879237" r="0.5" fill="#8c613c" />
<circle cx="36.87843109999999" cy="-202.593902" r="0.5" fill="#4878d0" />
<circle cx="190.773541" cy="-174.006651" r="0.5" fill="#4878d0" />
<circle cx="158.74509" cy="-226.78418" r="0.5" fill="#4878d0" />
<circle cx="-28.5120542" cy="29.120703499999998" r="0.5" fill="#8c613c" />
<circle cx="-24.4239422" cy="-157.974761" r="0.5" fill="#dc7ec0" />
<circle cx="1.65026974" cy="131.68282399999998" r="0.5" fill="#956cb4" />
<circle cx="-157.306632" cy="-156.115869" r="0.5" fill="#dc7ec0" />
<circle cx="-82.519262" cy="-96.226515" r="0.5" fill="#dc7ec0" />
<circle cx="47.277950999999995" cy="-52.170125" r="0.5" fill="#956cb4" />
<circle cx="205.066589" cy="-98.300258" r="0.5" fill="#6acc64" />
<circle cx="190.38730900000002" cy="-168.99512000000001" r="0.5" fill="#4878d0" />
<circle cx="-121.902774" cy="105.908236" r="0.5" fill="#8c613c" />
<circle cx="-49.095813199999995" cy="-115.92361199999999" r="0.5" fill="#dc7ec0" />
<circle cx="184.561888" cy="-50.2926529" r="0.5" fill="#dc7ec0" />
<circle cx="72.522548" cy="-70.431424" r="0.5" fill="#6acc64" />
<circle cx="-109.69055300000001" cy="183.916733" r="2" fill="#4878d0" />
<text x="-109.69055300000001" y="183.916733" font-size="2">Wired (magazine)</text>
<text x="142.73581000000001" y="228.20303099999995" font-size="30.0" fill="#ee854a" stroke="black" stroke-width="0.4" text-anchor="middle" transform="translate(0,15.0)">UNITED NATIONS</text>
<text x="64.37204200000001" y="-79.576441" font-size="30.0" fill="#6acc64" stroke="black" stroke-width="0.4" text-anchor="middle" transform="translate(0,15.0)">SCIENTIFIC METHOD</text>
<text x="-70.708519" y="124.00108700000001" font-size="30.0" fill="#d65f5f" stroke="black" stroke-width="0.4" text-anchor="middle" transform="translate(0,15.0)">CALIFORNIA</text>
<text x="147.267022" y="-188.7667285" font-size="30.0" fill="#4878d0" stroke="black" stroke-width="0.4" text-anchor="middle" transform="translate(0,15.0)">DOCUMENTARY FILM</text>
<text x="-150.102806" y="61.475910999999996" font-size="30.0" fill="#8c613c" stroke="black" stroke-width="0.4" text-anchor="middle" transform="translate(0,15.0)">MATHEMATICS</text>
<text x="31.216154900000003" y="41.3731899" font-size="30.0" fill="#956cb4" stroke="black" stroke-width="0.4" text-anchor="middle" transform="translate(0,15.0)">RESEARCH</text>
<text x="-83.634824" y="-107.520245" font-size="30.0" fill="#dc7ec0" stroke="black" stroke-width="0.4" text-anchor="middle" transform="translate(0,15.0)">LABORATORY</text>
</svg>